<?xml version="1.0" encoding="UTF-8"?>
<svg xmlns="http://www.w3.org/2000/svg" xmlns:xlink="http://www.w3.org/1999/xlink" width="2112" height="2112" viewBox="0 0 2112 2112">

<path fill-rule="evenodd" fill="rgb(91.796875%, 93.359375%, 94.53125%)" fill-opacity="1" d="M 393.28125 529.070312 C 367.496094 538.910156 342.957031 550.53125 328.679688 573.210938 C 323.898438 580.808594 319.710938 589.449219 315.46875 597.910156 C 287.347656 654.019531 270.964844 703.550781 254.949219 766.359375 C 246.1875 800.730469 229.878906 867.550781 231.503906 901.839844 C 233.410156 942.199219 235.277344 919.898438 233.101562 962 C 232.765625 968.980469 234.570312 970.109375 236.832031 974.488281 C 239.417969 979.511719 237.429688 981.648438 237.429688 988.160156 C 237.429688 1024.519531 225.660156 1022.308594 225.660156 1064.019531 C 225.660156 1073.960938 234.238281 1109.601562 238.632812 1115.210938 L 255.449219 1129.792969 C 259.910156 1133.171875 263.195312 1138.0625 267.886719 1140.773438 C 271.410156 1142.8125 275.132812 1144.542969 277.246094 1140.359375 C 280.976562 1132.980469 281.667969 1129.542969 277.886719 1117.894531 C 273.21875 1108.121094 266.980469 1104.699219 266.980469 1092.789062 C 266.980469 1086.730469 265.871094 1075.261719 268.902344 1071.050781 C 279.050781 1078.5 262.304688 1112.683594 284.597656 1112.945312 C 286.871094 1109.421875 286.675781 1108.191406 287.269531 1103.230469 C 290.425781 1076.949219 296.019531 1047.359375 284.347656 1023.761719 C 276.378906 1007.660156 284.367188 999.621094 286.59375 982.488281 C 290 956.25 312.367188 952.070312 320.839844 887.230469 C 321.957031 878.671875 321.503906 870.371094 322.542969 862.621094 C 323.207031 857.660156 334.789062 843.761719 339.238281 828.261719 C 342.339844 817.441406 345.429688 794.019531 350.171875 786.480469 C 349.234375 821.691406 347.640625 850.691406 353.328125 885.519531 C 354.761719 894.300781 347.3125 913.050781 344.976562 922.960938 C 331.289062 981.058594 332.617188 1130.269531 332.617188 1188.410156 C 332.617188 1318.789062 337.132812 1317.640625 343.339844 1416.960938 C 345.734375 1425.535156 352.582031 1521.976562 353.089844 1539.078125 C 354.664062 1591.839844 357.148438 1644.441406 357.148438 1697.046875 C 357.148438 1722.6875 341.207031 1736.53125 328.492188 1769.792969 C 323.898438 1781.8125 319.835938 1797.898438 327.714844 1808.246094 C 341.425781 1826.253906 402.515625 1835.457031 415.914062 1781.257812 C 419.15625 1768.144531 419.371094 1767.773438 426.519531 1760.480469 C 453.695312 1732.765625 439.199219 1720.320312 445.789062 1705.113281 C 458.8125 1675.066406 449.351562 1657.488281 452.9375 1631.03125 C 456.507812 1604.707031 462.714844 1582.703125 464.089844 1555.753906 C 465.476562 1528.523438 470.496094 1503.222656 470.40625 1476.007812 C 470.367188 1464.480469 472.015625 1458.878906 473.019531 1448.367188 C 478.128906 1448.515625 486.214844 1088.660156 497.964844 1087.398438 C 508.777344 1086.238281 523.300781 1443.707031 528.136719 1442.789062 C 531.496094 1494.679688 541.957031 1554.496094 546.90625 1608.765625 C 548.609375 1627.421875 548.253906 1648.691406 550.578125 1666.378906 C 551.652344 1674.566406 556.089844 1685.691406 556.300781 1690.585938 C 556.554688 1696.554688 555.078125 1699.34375 556.785156 1705.949219 C 558.609375 1713.015625 559.660156 1709.136719 557.960938 1717.996094 C 553.734375 1740.042969 560.695312 1752.3125 572.234375 1762.546875 C 578.796875 1768.371094 582.535156 1768.527344 586.398438 1778.453125 C 595.929688 1802.96875 597.558594 1822.078125 637.734375 1822.078125 C 663.863281 1822.078125 687.089844 1807.058594 677.804688 1778.632812 C 673.621094 1765.816406 647.335938 1730.828125 646.796875 1723.207031 C 646.785156 1723.085938 649.605469 1717.914062 649.320312 1712.800781 C 649.101562 1708.835938 648.753906 1704.988281 648.554688 1700.984375 C 645.320312 1635.5625 661.410156 1567.871094 661.617188 1502.453125 C 663.09375 1368.574219 669.796875 1273.058594 674.441406 1120.253906 C 671.644531 1067.699219 666.621094 937.808594 646.097656 893.359375 C 643.507812 887.738281 650.894531 872.789062 650.894531 850.828125 C 650.894531 818.808594 648.851562 786.820312 646.097656 755.878906 C 649.742188 784.769531 661.703125 813.410156 667.710938 841.789062 C 671.53125 859.859375 678.726562 862.441406 679.882812 883.371094 C 683.367188 946.609375 695.832031 935.039062 703.167969 967.121094 C 704.871094 974.570312 709.28125 978.828125 715.15625 981.160156 C 715.289062 981.898438 715.410156 982.648438 715.511719 983.429688 C 717.734375 1000.558594 725.722656 1008.589844 717.753906 1024.699219 C 706.082031 1048.289062 711.675781 1077.878906 714.832031 1104.160156 C 715.429688 1109.128906 715.230469 1110.351562 717.503906 1113.878906 C 739.800781 1113.617188 723.050781 1079.429688 733.199219 1071.988281 C 736.230469 1076.199219 735.121094 1087.660156 735.121094 1093.730469 C 735.121094 1105.640625 728.882812 1109.058594 724.21875 1118.828125 C 718.914062 1129.933594 721.171875 1134.003906 724.972656 1141.527344 C 726.296875 1144.152344 726.316406 1144.078125 729.632812 1143.441406 C 737.074219 1142.015625 740.875 1135.101562 746.65625 1130.726562 L 763.472656 1116.148438 C 767.863281 1110.53125 776.441406 1074.890625 776.441406 1064.949219 C 776.441406 1023.238281 764.671875 1025.449219 764.671875 989.101562 C 764.671875 985.699219 764.132812 983.5 763.980469 981.449219 L 764.3125 981.449219 C 769.257812 972 773.835938 963.789062 773.835938 942.378906 C 773.835938 875.03125 752.089844 791.96875 733.960938 727.199219 C 728 705.898438 721.359375 680.578125 713.351562 661.480469 C 698.714844 626.539062 669.355469 573.921875 646.304688 558.421875 C 629.878906 547.359375 610.449219 537.851562 590.789062 529.660156 C 495.488281 610.519531 387.101562 531.609375 387.101562 531.609375 C 389.324219 530.789062 391.378906 529.949219 393.28125 529.070312 "/>
<path fill-rule="evenodd" fill="rgb(0%, 45.483398%, 53.318787%)" fill-opacity="1" d="M 238.152344 979.988281 C 238.066406 982.191406 237.429688 984.46875 237.429688 988.160156 C 237.429688 1024.519531 225.660156 1022.308594 225.660156 1064.019531 C 225.660156 1073.960938 234.238281 1109.601562 238.632812 1115.210938 L 255.449219 1129.792969 C 259.910156 1133.171875 263.195312 1138.0625 267.886719 1140.773438 C 271.410156 1142.8125 275.132812 1144.542969 277.246094 1140.359375 C 280.976562 1132.980469 281.667969 1129.542969 277.886719 1117.894531 C 273.21875 1108.121094 266.980469 1104.699219 266.980469 1092.789062 C 266.980469 1086.730469 265.871094 1075.261719 268.90625 1071.050781 C 279.050781 1078.5 262.304688 1112.683594 284.597656 1112.945312 C 286.871094 1109.421875 286.671875 1108.191406 287.269531 1103.230469 C 290.425781 1076.949219 296.019531 1047.359375 284.347656 1023.761719 C 276.378906 1007.660156 284.367188 999.621094 286.59375 982.488281 C 286.703125 981.628906 286.835938 980.800781 286.988281 979.988281 L 238.152344 979.988281 "/>
<path fill-rule="evenodd" fill="rgb(0%, 45.483398%, 53.318787%)" fill-opacity="1" d="M 715.050781 981.109375 L 715.15625 981.160156 C 715.289062 981.898438 715.410156 982.648438 715.511719 983.429688 C 717.734375 1000.558594 725.722656 1008.589844 717.753906 1024.699219 C 706.082031 1048.289062 711.675781 1077.878906 714.832031 1104.160156 C 715.429688 1109.128906 715.230469 1110.351562 717.503906 1113.878906 C 739.800781 1113.617188 723.050781 1079.429688 733.199219 1071.988281 C 736.230469 1076.199219 735.121094 1087.660156 735.121094 1093.730469 C 735.121094 1105.640625 728.882812 1109.058594 724.21875 1118.828125 C 718.914062 1129.933594 721.171875 1134.003906 724.972656 1141.527344 C 726.296875 1144.152344 726.316406 1144.078125 729.632812 1143.441406 C 737.074219 1142.015625 740.875 1135.101562 746.65625 1130.726562 L 763.472656 1116.148438 C 767.863281 1110.53125 776.441406 1074.890625 776.441406 1064.960938 C 776.441406 1023.238281 764.671875 1025.449219 764.671875 989.101562 C 764.671875 985.699219 764.132812 983.5 763.980469 981.449219 L 764.3125 981.449219 L 764.488281 981.109375 L 715.050781 981.109375 "/>
<path fill-rule="evenodd" fill="rgb(90.234375%, 90.234375%, 90.234375%)" fill-opacity="1" d="M 351.242188 1820.816406 C 374.671875 1825.875 406.660156 1818.683594 415.914062 1781.257812 C 419.15625 1768.144531 419.371094 1767.773438 426.519531 1760.480469 C 453.695312 1732.765625 439.199219 1720.320312 445.789062 1705.113281 C 458.8125 1675.066406 449.351562 1657.488281 452.9375 1631.03125 C 456.507812 1604.707031 462.714844 1582.703125 464.089844 1555.753906 C 465.476562 1528.523438 470.496094 1503.222656 470.40625 1476.007812 C 470.367188 1464.480469 472.015625 1458.878906 473.019531 1448.367188 C 477.796875 1448.503906 485.164062 1134.476562 495.691406 1092.128906 C 486.246094 1107.179688 456.007812 1129.929688 459.683594 1252.550781 C 462.414062 1343.742188 443.890625 1450.640625 448.4375 1556.910156 C 448.628906 1561.421875 436.382812 1647.679688 429.796875 1691.410156 C 422.832031 1737.664062 392.191406 1794.875 351.242188 1820.816406 "/>
<path fill-rule="evenodd" fill="rgb(90.234375%, 90.234375%, 90.234375%)" fill-opacity="1" d="M 286.136719 985.449219 C 286.171875 985.269531 286.203125 985.078125 286.234375 984.890625 C 286.203125 985.078125 286.171875 985.269531 286.136719 985.449219 Z M 286.253906 984.78125 C 286.289062 984.570312 286.324219 984.351562 286.359375 984.121094 C 286.324219 984.351562 286.289062 984.570312 286.253906 984.78125 Z M 286.367188 984.058594 C 286.40625 983.808594 286.445312 983.550781 286.480469 983.300781 C 286.445312 983.550781 286.40625 983.808594 286.367188 984.058594 Z M 286.484375 983.28125 C 286.523438 983.019531 286.558594 982.761719 286.59375 982.488281 C 286.644531 982.101562 286.699219 981.710938 286.761719 981.320312 C 286.699219 981.710938 286.644531 982.101562 286.59375 982.488281 C 286.558594 982.761719 286.523438 983.019531 286.484375 983.28125 Z M 286.773438 981.230469 C 286.828125 980.871094 286.890625 980.519531 286.953125 980.179688 C 286.890625 980.519531 286.828125 980.871094 286.773438 981.230469 Z M 286.988281 979.988281 C 291.449219 955.910156 312.644531 949.949219 320.839844 887.230469 C 321.957031 878.671875 321.503906 870.371094 322.542969 862.621094 C 323.207031 857.660156 334.789062 843.761719 339.238281 828.261719 C 341.636719 819.898438 344.023438 804.011719 347.175781 793.738281 C 347.679688 791.191406 349.3125 786.699219 350.171875 786.480469 C 342.972656 788.378906 302.957031 861.519531 303.847656 882.308594 C 303.941406 884.558594 286.246094 957.191406 285.128906 979.988281 L 286.988281 979.988281 "/>
<path fill-rule="evenodd" fill="rgb(90.234375%, 90.234375%, 90.234375%)" fill-opacity="1" d="M 659.074219 1541.6875 C 660.367188 1526.496094 661.253906 1511.375 661.296875 1496.371094 C 662.777344 1362.492188 669.480469 1266.972656 674.125 1114.167969 C 672.089844 1075.949219 668.878906 996.828125 659.386719 939.410156 C 656.859375 924.148438 652.035156 910.210938 648.527344 899.191406 C 645.726562 906.710938 643.019531 918.140625 641.097656 929.878906 C 627.777344 1011.320312 657.585938 1207.117188 634.738281 1262.507812 C 631.730469 1269.800781 620.800781 1537.269531 634.929688 1539.496094 C 643.855469 1540.90625 651.867188 1541.613281 659.074219 1541.6875 Z M 647.824219 892.109375 L 647.785156 892.011719 L 647.613281 892.121094 Z M 647.824219 892.109375 "/>
<path fill-rule="evenodd" fill="rgb(90.234375%, 90.234375%, 90.234375%)" fill-opacity="1" d="M 765.34375 1002.75 C 765.316406 1002.488281 765.289062 1002.21875 765.261719 1001.960938 C 765.289062 1002.21875 765.316406 1002.488281 765.34375 1002.75 Z M 765.214844 1001.480469 C 765.191406 1001.238281 765.171875 1000.988281 765.148438 1000.738281 C 765.171875 1000.988281 765.191406 1001.238281 765.214844 1001.480469 Z M 764.488281 981.109375 C 769.367188 971.800781 773.835938 963.539062 773.835938 942.378906 C 773.835938 875.03125 752.089844 791.96875 733.960938 727.199219 C 728 705.898438 721.359375 680.578125 713.351562 661.480469 C 698.714844 626.539062 669.355469 573.921875 646.304688 558.421875 C 637.941406 552.789062 628.800781 547.558594 619.246094 542.699219 C 620.945312 555.019531 683.535156 663.019531 694.488281 717.320312 C 710.394531 796.191406 752.765625 784.96875 752.765625 934.871094 C 752.765625 950.160156 750.652344 967.628906 750.753906 981.109375 L 764.488281 981.109375 "/>
<path fill-rule="evenodd" fill="rgb(100%, 71.679688%, 0%)" fill-opacity="1" d="M 532.605469 1512.046875 C 536.636719 1543.355469 540.996094 1575.113281 543.746094 1605.253906 C 545.539062 1624.953125 545.164062 1647.417969 547.621094 1666.097656 C 548.753906 1674.746094 553.441406 1686.496094 553.664062 1691.664062 C 553.933594 1697.964844 552.371094 1700.914062 554.175781 1707.890625 C 556.105469 1715.351562 557.214844 1711.253906 555.417969 1720.609375 C 550.953125 1743.894531 558.304688 1756.851562 570.492188 1767.660156 C 577.421875 1773.8125 581.371094 1773.976562 585.449219 1784.460938 C 595.519531 1810.351562 597.234375 1830.535156 639.664062 1830.535156 C 667.261719 1830.535156 691.792969 1814.671875 681.988281 1784.648438 C 677.566406 1771.113281 649.804688 1734.164062 649.234375 1726.113281 C 649.226562 1725.988281 652.203125 1720.523438 651.902344 1715.125 C 651.671875 1710.9375 651.304688 1706.875 651.09375 1702.644531 C 647.992188 1639.890625 661.726562 1575.160156 664.433594 1512.046875 L 532.605469 1512.046875 "/>
<path fill-rule="evenodd" fill="rgb(94.139099%, 67.381287%, 0%)" fill-opacity="1" d="M 644.011719 1830.398438 C 669.757812 1828.8125 691.273438 1813.085938 681.988281 1784.648438 C 677.566406 1771.113281 649.804688 1734.164062 649.234375 1726.113281 C 649.226562 1725.988281 652.203125 1720.523438 651.902344 1715.125 C 651.671875 1710.9375 651.304688 1706.875 651.09375 1702.644531 C 647.992188 1639.890625 661.726562 1575.160156 664.433594 1512.046875 L 628.519531 1512.046875 C 627.976562 1549.890625 626.042969 1664.8125 624.824219 1678.902344 C 619.945312 1735.242188 622.03125 1715.246094 647.003906 1762.402344 C 658.007812 1783.183594 682.65625 1804.039062 647.003906 1828.222656 C 645.914062 1828.960938 644.933594 1829.683594 644.011719 1830.398438 "/>
<path fill-rule="evenodd" fill="rgb(100%, 71.679688%, 0%)" fill-opacity="1" d="M 349.363281 1512.046875 C 349.917969 1521.011719 350.296875 1528.023438 350.40625 1531.652344 C 352.066406 1587.375 354.691406 1642.929688 354.691406 1698.488281 C 354.691406 1725.5625 337.851562 1740.1875 324.425781 1775.316406 C 319.574219 1788.011719 315.285156 1804.996094 323.605469 1815.925781 C 338.085938 1834.945312 402.601562 1844.664062 416.753906 1787.421875 C 420.175781 1773.574219 420.402344 1773.179688 427.953125 1765.480469 C 456.652344 1736.210938 441.34375 1723.066406 448.304688 1707.007812 C 462.054688 1675.273438 452.066406 1656.710938 455.851562 1628.765625 C 459.621094 1600.964844 466.179688 1577.726562 467.628906 1549.265625 C 468.273438 1536.578125 469.667969 1524.289062 471.015625 1512.046875 L 349.363281 1512.046875 "/>
<path fill-rule="evenodd" fill="rgb(94.139099%, 67.381287%, 0%)" fill-opacity="1" d="M 340.578125 1826.964844 C 365.386719 1835.839844 405.894531 1831.339844 416.753906 1787.421875 C 420.175781 1773.570312 420.402344 1773.179688 427.953125 1765.480469 C 456.652344 1736.210938 441.34375 1723.066406 448.304688 1707.007812 C 462.054688 1675.273438 452.066406 1656.710938 455.851562 1628.765625 C 459.621094 1600.964844 466.179688 1577.726562 467.628906 1549.265625 C 468.273438 1536.578125 469.667969 1524.289062 471.015625 1512.046875 L 447.765625 1512.046875 C 447.613281 1526.984375 447.796875 1541.953125 448.4375 1556.910156 C 448.628906 1561.421875 436.382812 1647.679688 429.796875 1691.410156 C 422.4375 1740.273438 388.664062 1801.371094 344.222656 1824.902344 C 342.921875 1825.59375 341.71875 1826.277344 340.578125 1826.964844 "/>
<path fill-rule="evenodd" fill="rgb(85.9375%, 72.459412%, 64.256287%)" fill-opacity="1" d="M 420.539062 386.519531 L 422.703125 419.601562 C 422.527344 427.25 414.0625 433.609375 426.347656 459.210938 C 429.933594 466.671875 432.6875 469.609375 441.992188 469.960938 C 445.222656 519.96875 441.738281 510.921875 397.007812 527.660156 C 396.394531 527.890625 395.777344 528.121094 395.164062 528.351562 C 420.820312 544.160156 503.710938 586.050781 583.539062 526.699219 C 575.292969 523.398438 567.0625 520.328125 559.054688 517.480469 C 548.261719 513.628906 548.058594 495.890625 547.570312 485.75 L 547.816406 484.410156 C 546.734375 469.410156 550.960938 471.671875 557.300781 466.980469 C 560.714844 464.449219 565.414062 455.820312 567.582031 449.769531 C 572.789062 435.261719 568.3125 435.058594 568.695312 425.871094 L 571.71875 400.738281 C 570.671875 386.949219 570.84375 373.851562 567.375 360.140625 C 556.609375 288.871094 431.4375 267.730469 420.539062 386.519531 "/>
<path fill-rule="evenodd" fill="rgb(19.993591%, 19.993591%, 19.993591%)" fill-opacity="1" d="M 562.097656 391.261719 C 564.597656 397.601562 565.359375 401.511719 565.132812 408.328125 C 564.753906 419.621094 561.53125 431.460938 551.574219 437.980469 C 540.582031 445.179688 522.308594 445.050781 513 435.160156 C 511.859375 433.949219 510.84375 432.628906 509.941406 431.230469 C 508.191406 428.511719 506.910156 425.539062 505.839844 422.5 C 504.632812 419.070312 503.734375 415.550781 502.53125 412.128906 C 501.8125 410.089844 500.78125 407.5 499.226562 405.941406 C 497.605469 404.300781 494.878906 403.71875 493.113281 405.441406 C 491.851562 406.671875 490.710938 409.96875 490.152344 411.609375 C 488.824219 415.539062 487.738281 419.488281 486.21875 423.359375 C 481.722656 434.820312 474.414062 442.570312 461.320312 443.039062 C 449.457031 443.46875 438.566406 439.410156 432.183594 428.96875 C 429.578125 424.71875 428.039062 419.878906 427.351562 414.960938 C 425.996094 405.289062 427.851562 391.359375 434.769531 383.929688 C 443.140625 374.949219 464.109375 377.390625 475.550781 377.390625 C 480.113281 377.390625 484.683594 377.960938 488.855469 379.890625 C 490.183594 380.511719 491.40625 381.238281 492.625 382.050781 C 493.285156 382.488281 493.980469 382.988281 494.679688 383.359375 C 495.269531 383.671875 495.699219 383.761719 496.375 383.738281 C 497.011719 383.730469 497.449219 383.621094 498.011719 383.328125 C 498.738281 382.960938 499.453125 382.460938 500.140625 382.019531 C 501.382812 381.230469 502.621094 380.511719 503.96875 379.898438 C 508.1875 377.988281 512.785156 377.410156 517.386719 377.390625 C 523.851562 377.371094 530.324219 376.820312 536.773438 376.859375 C 542.605469 376.910156 548.671875 377.519531 553.71875 380.699219 C 557.722656 383.21875 560.378906 386.898438 562.097656 391.261719 Z M 559.472656 392.289062 C 561.832031 398.28125 562.527344 401.800781 562.3125 408.238281 C 561.96875 418.539062 559.15625 429.648438 550.027344 435.621094 C 546.703125 437.800781 542.867188 439.160156 538.953125 439.800781 C 530.894531 441.101562 520.863281 439.398438 515.054688 433.230469 C 514.03125 432.140625 513.121094 430.960938 512.316406 429.699219 C 510.6875 427.171875 509.496094 424.398438 508.5 421.570312 C 507.296875 418.140625 506.394531 414.609375 505.191406 411.191406 C 504.308594 408.691406 503.128906 405.859375 501.226562 403.949219 C 498.496094 401.199219 494.023438 400.609375 491.140625 403.429688 C 489.4375 405.089844 488.234375 408.488281 487.480469 410.710938 C 486.167969 414.589844 485.09375 418.511719 483.59375 422.328125 C 479.515625 432.730469 473.148438 439.789062 461.21875 440.21875 C 450.421875 440.609375 440.414062 437.019531 434.589844 427.5 C 432.1875 423.578125 430.78125 419.109375 430.144531 414.570312 C 428.914062 405.78125 430.53125 392.621094 436.835938 385.851562 C 444.230469 377.921875 465.328125 380.210938 475.550781 380.210938 C 479.683594 380.210938 483.882812 380.699219 487.667969 382.449219 C 488.867188 383.011719 489.96875 383.671875 491.070312 384.398438 C 491.8125 384.890625 492.570312 385.429688 493.359375 385.851562 C 494.375 386.390625 495.273438 386.589844 496.421875 386.570312 C 497.492188 386.550781 498.347656 386.328125 499.296875 385.839844 C 500.109375 385.429688 500.890625 384.890625 501.664062 384.398438 C 502.789062 383.679688 503.910156 383.019531 505.132812 382.46875 C 508.976562 380.730469 513.210938 380.230469 517.394531 380.210938 C 523.851562 380.191406 530.316406 379.640625 536.753906 379.679688 C 542.003906 379.71875 547.664062 380.21875 552.214844 383.078125 C 555.703125 385.28125 557.976562 388.5 559.472656 392.289062 "/>
<path fill-rule="evenodd" fill="rgb(91.014099%, 91.014099%, 91.014099%)" fill-opacity="1" d="M 556.847656 393.328125 C 551.246094 379.101562 536.992188 382.910156 517.40625 383.03125 C 503.15625 383.03125 503.226562 389.269531 496.472656 389.390625 C 489.394531 389.511719 489.90625 383.03125 475.550781 383.03125 C 465.324219 383.03125 445.21875 381 438.898438 387.78125 C 429.058594 398.328125 426.804688 438.640625 461.117188 437.398438 C 483.679688 436.589844 481.480469 408.921875 489.167969 401.410156 C 493.011719 397.648438 499.230469 397.941406 503.226562 401.960938 C 509.789062 408.550781 509.179688 422.871094 517.109375 431.289062 C 523.792969 438.398438 538.785156 439.609375 548.480469 433.261719 C 556.148438 428.238281 559.136719 418.75 559.492188 408.140625 C 559.695312 402.070312 559.144531 399.140625 556.847656 393.328125 "/>
<path fill-rule="evenodd" fill="rgb(76.5625%, 85.9375%, 85.9375%)" fill-opacity="1" d="M 448.726562 467.351562 C 461.847656 473.128906 470.746094 476.898438 499.09375 477.671875 C 513.484375 477.671875 531.21875 475.148438 542.472656 465.890625 C 537.9375 436.128906 518.792969 457.761719 504.980469 435.460938 C 496.867188 422.371094 497.507812 419.71875 488.59375 434.789062 C 473.816406 459.761719 452.917969 435.328125 448.726562 467.351562 "/>
<path fill-rule="evenodd" fill="rgb(90.234375%, 90.234375%, 90.234375%)" fill-opacity="1" d="M 538.332031 484.070312 L 542.769531 471.378906 C 505.621094 484.550781 485.410156 482.808594 448.847656 470.050781 C 451.425781 483.660156 452.964844 488.28125 461.394531 494.769531 C 485.476562 513.320312 521.570312 506.878906 535.757812 488.691406 C 537.140625 486.910156 537.515625 486.121094 538.332031 484.070312 "/>
<path fill-rule="evenodd" fill="rgb(91.796875%, 93.359375%, 94.53125%)" fill-opacity="1" d="M 416.980469 367.890625 L 416.980469 466.078125 C 416.980469 491.671875 416.324219 506.800781 408.839844 517.101562 C 405.613281 521.53125 401.121094 525.078125 394.867188 528.171875 C 420.386719 543.960938 504.773438 586.988281 585.507812 525.238281 C 577.054688 518.671875 570.28125 510.839844 569.835938 498.480469 C 569.539062 490.28125 569.476562 481.609375 569.566406 472.648438 C 569.902344 438.28125 572.453125 399.691406 572.453125 367.601562 Z M 394.867188 528.171875 C 392.53125 529.328125 389.953125 530.421875 387.101562 531.46875 C 387.101562 531.46875 495.703125 610.539062 591.074219 529.28125 C 589.171875 527.96875 587.300781 526.628906 585.507812 525.238281 C 504.773438 586.988281 420.386719 543.960938 394.867188 528.171875 Z M 425.703125 366.929688 C 425.113281 391.039062 418.8125 458.300781 451.054688 470.371094 C 467.679688 476.589844 521.050781 490.378906 549.109375 461.761719 C 573.371094 432.539062 565.726562 416.960938 565.726562 366.929688 L 425.703125 366.929688 "/>
<path fill-rule="evenodd" fill="rgb(90.234375%, 90.234375%, 90.234375%)" fill-opacity="1" d="M 403.550781 522.679688 C 401.117188 524.691406 398.25 526.5 394.867188 528.171875 C 420.386719 543.960938 504.773438 586.988281 585.507812 525.238281 C 577.054688 518.671875 570.28125 510.839844 569.835938 498.480469 C 569.539062 490.28125 569.476562 481.609375 569.566406 472.648438 C 569.898438 438.578125 572.40625 400.359375 572.453125 368.449219 C 568.90625 367.179688 565.902344 366.289062 565.726562 366.929688 C 565.726562 406.121094 570.414062 424.171875 560.789062 444.191406 C 559.917969 468.5 559.273438 490.050781 558.722656 494.25 C 557.800781 501.289062 550 511.351562 539.605469 521.238281 C 504.5625 554.589844 446.195312 544.988281 403.550781 522.679688 Z M 590.632812 528.980469 C 590.449219 529.359375 590.269531 529.738281 590.078125 530.101562 C 586.992188 532.699219 583.890625 535.121094 580.777344 537.390625 C 565.621094 542.628906 558.457031 549.28125 549.226562 555.191406 C 481.503906 583.140625 415.941406 549.378906 394.449219 536.261719 C 393.601562 534.929688 392.429688 532.519531 391.328125 529.800781 C 392.566406 529.269531 393.746094 528.730469 394.867188 528.171875 C 420.386719 543.960938 504.773438 586.988281 585.507812 525.238281 C 587.160156 526.519531 588.882812 527.761719 590.632812 528.980469 "/>
<path fill-rule="evenodd" fill="rgb(91.796875%, 93.359375%, 94.53125%)" fill-opacity="1" d="M 415.945312 364.78125 C 422.304688 322.28125 460.511719 298.320312 496.804688 298.019531 C 536.578125 297.699219 571.953125 328.429688 575.972656 364.78125 Z M 414.160156 364.78125 L 578.378906 364.78125 L 578.378906 372.679688 L 414.160156 372.679688 L 414.160156 364.78125 "/>
<path fill-rule="evenodd" fill="rgb(1.179504%, 45.872498%, 53.709412%)" fill-opacity="1" d="M 492.179688 368.871094 L 492.179688 298.019531 L 500.359375 298.019531 L 500.359375 368.871094 L 492.179688 368.871094 "/>
<path fill-rule="evenodd" fill="rgb(1.179504%, 45.872498%, 53.709412%)" fill-opacity="1" d="M 394.992188 528.25 C 392.625 529.429688 390.003906 530.539062 387.101562 531.609375 C 387.101562 531.609375 495.703125 610.679688 591.074219 529.421875 C 589.140625 528.089844 587.238281 526.71875 585.414062 525.308594 C 504.839844 586.859375 420.652344 544.089844 394.992188 528.25 "/>
<path fill-rule="evenodd" fill="rgb(0%, 45.483398%, 53.318787%)" fill-opacity="1" d="M 490.945312 894.769531 L 490.945312 558.410156 L 499.128906 558.410156 L 499.128906 894.769531 L 490.945312 894.769531 "/>
<path fill-rule="evenodd" fill="rgb(0%, 45.483398%, 53.318787%)" fill-opacity="1" d="M 353.414062 890.171875 L 645.546875 890.171875 L 646.097656 893.828125 L 647.929688 898.210938 L 351.996094 898.351562 L 353.414062 890.171875 "/>
<path fill-rule="evenodd" fill="rgb(1.179504%, 45.872498%, 53.709412%)" fill-opacity="1" d="M 414.160156 364.78125 L 578.378906 364.78125 L 578.378906 372.96875 L 414.160156 372.96875 L 414.160156 364.78125 "/>
<path fill-rule="evenodd" fill="rgb(91.796875%, 93.359375%, 94.53125%)" fill-opacity="1" d="M 1503.179688 531.46875 C 1477.390625 541.308594 1452.851562 552.929688 1438.578125 575.609375 C 1433.800781 583.210938 1429.609375 591.851562 1425.371094 600.308594 C 1397.238281 656.421875 1380.859375 705.949219 1364.851562 768.761719 C 1356.078125 803.128906 1339.78125 869.949219 1341.398438 904.238281 C 1343.308594 944.601562 1345.171875 922.300781 1343 964.398438 C 1342.660156 971.378906 1344.46875 972.511719 1346.730469 976.890625 C 1349.320312 981.910156 1347.328125 984.050781 1347.328125 990.558594 C 1347.328125 1026.921875 1335.558594 1024.710938 1335.558594 1066.421875 C 1335.558594 1076.359375 1344.140625 1112 1348.53125 1117.613281 L 1365.351562 1132.191406 C 1369.808594 1135.570312 1373.089844 1140.464844 1377.78125 1143.175781 C 1381.308594 1145.210938 1385.03125 1146.941406 1387.148438 1142.757812 C 1390.871094 1135.382812 1391.570312 1131.941406 1387.78125 1120.296875 C 1383.121094 1110.519531 1376.878906 1107.101562 1376.878906 1095.191406 C 1376.878906 1089.128906 1375.769531 1077.660156 1378.800781 1073.449219 C 1388.949219 1080.898438 1372.199219 1115.085938 1394.5 1115.34375 C 1396.769531 1111.820312 1396.570312 1110.589844 1397.171875 1105.628906 C 1400.320312 1079.351562 1405.921875 1049.761719 1394.238281 1026.160156 C 1386.28125 1010.058594 1394.261719 1002.019531 1396.488281 984.890625 C 1399.898438 958.648438 1422.269531 954.46875 1430.738281 889.628906 C 1431.851562 881.070312 1431.398438 872.769531 1432.441406 865.019531 C 1433.109375 860.058594 1444.691406 846.160156 1449.128906 830.660156 C 1452.238281 819.839844 1455.328125 796.421875 1460.070312 788.878906 C 1459.128906 824.089844 1457.539062 853.089844 1463.21875 887.921875 C 1464.660156 896.699219 1457.210938 915.449219 1454.878906 925.359375 C 1441.191406 983.460938 1442.511719 1132.671875 1442.511719 1190.808594 C 1442.511719 1321.191406 1447.03125 1320.039062 1453.238281 1419.359375 C 1455.628906 1427.9375 1462.480469 1524.375 1462.988281 1541.476562 C 1464.558594 1594.238281 1467.050781 1646.839844 1467.050781 1699.445312 C 1467.050781 1725.085938 1451.101562 1738.929688 1438.390625 1772.195312 C 1433.800781 1784.214844 1429.730469 1800.296875 1437.609375 1810.648438 C 1451.320312 1828.65625 1512.410156 1837.855469 1525.808594 1783.65625 C 1529.050781 1770.542969 1529.269531 1770.171875 1536.421875 1762.878906 C 1563.589844 1735.164062 1549.101562 1722.722656 1555.691406 1707.515625 C 1568.710938 1677.46875 1559.25 1659.890625 1562.828125 1633.429688 C 1566.398438 1607.105469 1572.609375 1585.101562 1573.988281 1558.152344 C 1575.371094 1530.925781 1580.398438 1505.621094 1580.300781 1478.410156 C 1580.261719 1466.878906 1581.910156 1461.28125 1582.921875 1450.769531 C 1588.03125 1450.914062 1596.109375 1091.058594 1607.859375 1089.800781 C 1618.679688 1088.640625 1633.199219 1446.105469 1638.03125 1445.1875 C 1641.390625 1497.078125 1651.851562 1556.898438 1656.808594 1611.164062 C 1658.511719 1629.820312 1658.148438 1651.089844 1660.46875 1668.777344 C 1661.550781 1676.964844 1665.988281 1688.09375 1666.199219 1692.984375 C 1666.449219 1698.953125 1664.96875 1701.746094 1666.679688 1708.351562 C 1668.511719 1715.414062 1669.558594 1711.535156 1667.859375 1720.394531 C 1663.628906 1742.441406 1670.589844 1754.710938 1682.128906 1764.945312 C 1688.691406 1770.769531 1692.429688 1770.925781 1696.289062 1780.851562 C 1705.828125 1805.367188 1707.449219 1824.480469 1747.628906 1824.480469 C 1773.761719 1824.480469 1796.988281 1809.460938 1787.699219 1781.03125 C 1783.519531 1768.214844 1757.230469 1733.230469 1756.691406 1725.605469 C 1756.679688 1725.488281 1759.5 1720.3125 1759.21875 1715.203125 C 1759 1711.238281 1758.648438 1707.390625 1758.449219 1703.386719 C 1755.21875 1637.960938 1771.308594 1570.273438 1771.511719 1504.855469 C 1772.988281 1370.976562 1779.699219 1275.457031 1784.339844 1122.652344 C 1781.539062 1070.101562 1776.519531 940.210938 1756 895.761719 C 1753.398438 890.140625 1760.789062 875.191406 1760.789062 853.230469 C 1760.789062 821.210938 1758.75 789.21875 1756 758.28125 C 1759.640625 787.171875 1771.601562 815.808594 1777.609375 844.191406 C 1781.429688 862.261719 1788.628906 864.839844 1789.78125 885.769531 C 1793.261719 949.011719 1805.730469 937.441406 1813.058594 969.519531 C 1814.769531 976.96875 1819.179688 981.230469 1825.050781 983.558594 C 1825.191406 984.300781 1825.308594 985.050781 1825.410156 985.828125 C 1827.628906 1002.960938 1835.621094 1010.988281 1827.648438 1027.101562 C 1815.980469 1050.691406 1821.570312 1080.28125 1824.730469 1106.558594 C 1825.328125 1111.53125 1825.128906 1112.75 1827.398438 1116.277344 C 1849.699219 1116.019531 1832.949219 1081.828125 1843.101562 1074.390625 C 1846.128906 1078.601562 1845.019531 1090.058594 1845.019531 1096.128906 C 1845.019531 1108.039062 1838.78125 1111.460938 1834.109375 1121.230469 C 1828.808594 1132.335938 1831.070312 1136.402344 1834.871094 1143.929688 C 1836.191406 1146.554688 1836.210938 1146.480469 1839.53125 1145.84375 C 1846.96875 1144.414062 1850.769531 1137.503906 1856.550781 1133.128906 L 1873.371094 1118.546875 C 1877.761719 1112.933594 1886.339844 1077.289062 1886.339844 1067.351562 C 1886.339844 1025.640625 1874.570312 1027.851562 1874.570312 991.5 C 1874.570312 988.101562 1874.03125 985.898438 1873.878906 983.851562 L 1874.210938 983.851562 C 1879.160156 974.398438 1883.730469 966.191406 1883.730469 944.78125 C 1883.730469 877.429688 1861.988281 794.371094 1843.859375 729.601562 C 1837.898438 708.300781 1831.261719 682.980469 1823.25 663.878906 C 1808.609375 628.941406 1779.25 576.320312 1756.199219 560.820312 C 1739.78125 549.761719 1720.351562 540.25 1700.691406 532.058594 C 1605.378906 612.921875 1497 534.011719 1497 534.011719 C 1499.21875 533.191406 1501.28125 532.351562 1503.179688 531.46875 "/>
<path fill-rule="evenodd" fill="rgb(0%, 45.483398%, 53.318787%)" fill-opacity="1" d="M 1348.050781 982.390625 C 1347.96875 984.589844 1347.328125 986.871094 1347.328125 990.558594 C 1347.328125 1026.921875 1335.558594 1024.710938 1335.558594 1066.421875 C 1335.558594 1076.359375 1344.128906 1112 1348.53125 1117.613281 L 1365.351562 1132.191406 C 1369.808594 1135.570312 1373.089844 1140.464844 1377.78125 1143.175781 C 1381.308594 1145.210938 1385.03125 1146.945312 1387.148438 1142.757812 C 1390.871094 1135.382812 1391.570312 1131.941406 1387.78125 1120.296875 C 1383.121094 1110.519531 1376.878906 1107.101562 1376.878906 1095.191406 C 1376.878906 1089.128906 1375.769531 1077.660156 1378.800781 1073.449219 C 1388.949219 1080.898438 1372.199219 1115.085938 1394.5 1115.34375 C 1396.769531 1111.820312 1396.570312 1110.589844 1397.171875 1105.628906 C 1400.320312 1079.351562 1405.921875 1049.761719 1394.238281 1026.160156 C 1386.28125 1010.058594 1394.261719 1002.019531 1396.488281 984.890625 C 1396.601562 984.03125 1396.730469 983.199219 1396.878906 982.390625 L 1348.050781 982.390625 "/>
<path fill-rule="evenodd" fill="rgb(0%, 45.483398%, 53.318787%)" fill-opacity="1" d="M 1824.949219 983.511719 L 1825.050781 983.558594 C 1825.191406 984.300781 1825.308594 985.050781 1825.410156 985.828125 C 1827.628906 1002.960938 1835.621094 1010.988281 1827.648438 1027.101562 C 1815.980469 1050.691406 1821.570312 1080.28125 1824.730469 1106.558594 C 1825.328125 1111.53125 1825.128906 1112.75 1827.398438 1116.277344 C 1849.699219 1116.019531 1832.949219 1081.828125 1843.101562 1074.390625 C 1846.128906 1078.601562 1845.019531 1090.058594 1845.019531 1096.128906 C 1845.019531 1108.039062 1838.78125 1111.460938 1834.109375 1121.230469 C 1828.808594 1132.335938 1831.070312 1136.402344 1834.871094 1143.929688 C 1836.199219 1146.554688 1836.210938 1146.480469 1839.53125 1145.84375 C 1846.96875 1144.414062 1850.769531 1137.503906 1856.550781 1133.128906 L 1873.371094 1118.546875 C 1877.761719 1112.933594 1886.339844 1077.289062 1886.339844 1067.359375 C 1886.339844 1025.640625 1874.570312 1027.851562 1874.570312 991.5 C 1874.570312 988.101562 1874.03125 985.898438 1873.878906 983.851562 L 1874.210938 983.851562 L 1874.390625 983.511719 L 1824.949219 983.511719 "/>
<path fill-rule="evenodd" fill="rgb(90.234375%, 90.234375%, 90.234375%)" fill-opacity="1" d="M 1461.140625 1823.214844 C 1484.570312 1828.273438 1516.558594 1821.082031 1525.808594 1783.65625 C 1529.050781 1770.542969 1529.269531 1770.171875 1536.421875 1762.878906 C 1563.589844 1735.164062 1549.101562 1722.722656 1555.691406 1707.515625 C 1568.710938 1677.46875 1559.25 1659.890625 1562.828125 1633.429688 C 1566.398438 1607.105469 1572.609375 1585.101562 1573.988281 1558.152344 C 1575.371094 1530.925781 1580.398438 1505.621094 1580.300781 1478.410156 C 1580.261719 1466.878906 1581.910156 1461.28125 1582.921875 1450.769531 C 1587.691406 1450.902344 1595.058594 1136.878906 1605.589844 1094.53125 C 1596.148438 1109.578125 1565.898438 1132.332031 1569.578125 1254.949219 C 1572.308594 1346.144531 1553.789062 1453.042969 1558.339844 1559.3125 C 1558.53125 1563.820312 1546.28125 1650.078125 1539.691406 1693.8125 C 1532.730469 1740.066406 1502.089844 1797.277344 1461.140625 1823.214844 "/>
<path fill-rule="evenodd" fill="rgb(90.234375%, 90.234375%, 90.234375%)" fill-opacity="1" d="M 1396.039062 987.851562 C 1396.070312 987.671875 1396.101562 987.480469 1396.128906 987.289062 C 1396.101562 987.480469 1396.070312 987.671875 1396.039062 987.851562 Z M 1396.148438 987.179688 C 1396.191406 986.96875 1396.21875 986.75 1396.261719 986.519531 C 1396.21875 986.75 1396.191406 986.96875 1396.148438 987.179688 Z M 1396.269531 986.460938 C 1396.308594 986.210938 1396.339844 985.949219 1396.378906 985.699219 C 1396.339844 985.949219 1396.308594 986.210938 1396.269531 986.460938 Z M 1396.378906 985.679688 C 1396.421875 985.421875 1396.460938 985.160156 1396.488281 984.890625 C 1396.539062 984.5 1396.601562 984.109375 1396.660156 983.71875 C 1396.601562 984.109375 1396.539062 984.5 1396.488281 984.890625 C 1396.460938 985.160156 1396.421875 985.421875 1396.378906 985.679688 Z M 1396.671875 983.628906 C 1396.730469 983.269531 1396.789062 982.921875 1396.851562 982.578125 C 1396.789062 982.921875 1396.730469 983.269531 1396.671875 983.628906 Z M 1396.878906 982.390625 C 1401.351562 958.308594 1422.539062 952.351562 1430.738281 889.628906 C 1431.851562 881.070312 1431.398438 872.769531 1432.441406 865.019531 C 1433.109375 860.058594 1444.691406 846.160156 1449.128906 830.660156 C 1451.53125 822.300781 1453.921875 806.410156 1457.070312 796.140625 C 1457.578125 793.589844 1459.210938 789.101562 1460.070312 788.878906 C 1452.871094 790.78125 1412.851562 863.929688 1413.738281 884.710938 C 1413.839844 886.960938 1396.140625 959.589844 1395.03125 982.390625 L 1396.878906 982.390625 "/>
<path fill-rule="evenodd" fill="rgb(90.234375%, 90.234375%, 90.234375%)" fill-opacity="1" d="M 1768.96875 1544.085938 C 1770.261719 1528.898438 1771.148438 1513.773438 1771.199219 1498.769531 C 1772.671875 1364.890625 1779.378906 1269.371094 1784.019531 1116.570312 C 1781.988281 1078.351562 1778.78125 999.230469 1769.28125 941.808594 C 1766.761719 926.550781 1761.929688 912.609375 1758.421875 901.589844 C 1755.628906 909.109375 1752.921875 920.539062 1751 932.28125 C 1737.679688 1013.71875 1767.480469 1209.515625 1744.640625 1264.910156 C 1741.628906 1272.199219 1730.699219 1539.671875 1744.828125 1541.898438 C 1753.75 1543.304688 1761.761719 1544.011719 1768.96875 1544.085938 Z M 1757.71875 894.511719 L 1757.679688 894.410156 L 1757.511719 894.519531 Z M 1757.71875 894.511719 "/>
<path fill-rule="evenodd" fill="rgb(90.234375%, 90.234375%, 90.234375%)" fill-opacity="1" d="M 1875.238281 1005.148438 C 1875.210938 1004.890625 1875.191406 1004.621094 1875.160156 1004.359375 C 1875.191406 1004.621094 1875.210938 1004.890625 1875.238281 1005.148438 Z M 1875.109375 1003.878906 C 1875.089844 1003.640625 1875.070312 1003.390625 1875.050781 1003.140625 C 1875.070312 1003.390625 1875.089844 1003.640625 1875.109375 1003.878906 Z M 1874.390625 983.511719 C 1879.261719 974.199219 1883.730469 965.941406 1883.730469 944.78125 C 1883.730469 877.429688 1861.988281 794.371094 1843.859375 729.601562 C 1837.898438 708.300781 1831.261719 682.980469 1823.25 663.878906 C 1808.609375 628.941406 1779.25 576.320312 1756.199219 560.820312 C 1747.839844 555.191406 1738.699219 549.960938 1729.140625 545.101562 C 1730.839844 557.421875 1793.429688 665.421875 1804.378906 719.71875 C 1820.289062 798.589844 1862.660156 787.371094 1862.660156 937.269531 C 1862.660156 952.558594 1860.550781 970.03125 1860.648438 983.511719 L 1874.390625 983.511719 "/>
<path fill-rule="evenodd" fill="rgb(100%, 71.679688%, 0%)" fill-opacity="1" d="M 1642.5 1514.449219 C 1646.539062 1545.757812 1650.890625 1577.515625 1653.640625 1607.652344 C 1655.441406 1627.355469 1655.058594 1649.816406 1657.519531 1668.496094 C 1658.648438 1677.144531 1663.339844 1688.894531 1663.558594 1694.0625 C 1663.828125 1700.363281 1662.269531 1703.3125 1664.070312 1710.289062 C 1666 1717.75 1667.109375 1713.652344 1665.320312 1723.011719 C 1660.851562 1746.292969 1668.199219 1759.253906 1680.390625 1770.0625 C 1687.320312 1776.210938 1691.269531 1776.378906 1695.351562 1786.859375 C 1705.421875 1812.75 1707.128906 1832.933594 1749.558594 1832.933594 C 1777.160156 1832.933594 1801.691406 1817.070312 1791.878906 1787.050781 C 1787.46875 1773.515625 1759.699219 1736.566406 1759.128906 1728.515625 C 1759.128906 1728.386719 1762.101562 1722.925781 1761.800781 1717.527344 C 1761.570312 1713.339844 1761.199219 1709.273438 1760.988281 1705.046875 C 1757.890625 1642.289062 1771.621094 1577.5625 1774.328125 1514.449219 L 1642.5 1514.449219 "/>
<path fill-rule="evenodd" fill="rgb(94.139099%, 67.381287%, 0%)" fill-opacity="1" d="M 1753.910156 1832.800781 C 1779.660156 1831.214844 1801.171875 1815.484375 1791.878906 1787.050781 C 1787.46875 1773.515625 1759.699219 1736.566406 1759.128906 1728.515625 C 1759.128906 1728.386719 1762.101562 1722.925781 1761.800781 1717.527344 C 1761.570312 1713.339844 1761.199219 1709.273438 1760.988281 1705.046875 C 1757.890625 1642.289062 1771.621094 1577.5625 1774.328125 1514.449219 L 1738.410156 1514.449219 C 1737.871094 1552.289062 1735.941406 1667.210938 1734.71875 1681.300781 C 1729.839844 1737.644531 1731.929688 1717.644531 1756.898438 1764.804688 C 1767.910156 1785.585938 1792.550781 1806.4375 1756.898438 1830.621094 C 1755.808594 1831.363281 1754.828125 1832.085938 1753.910156 1832.800781 "/>
<path fill-rule="evenodd" fill="rgb(100%, 71.679688%, 0%)" fill-opacity="1" d="M 1459.261719 1514.449219 C 1459.808594 1523.410156 1460.191406 1530.425781 1460.300781 1534.054688 C 1461.960938 1589.777344 1464.589844 1645.328125 1464.589844 1700.886719 C 1464.589844 1727.964844 1447.75 1742.585938 1434.320312 1777.714844 C 1429.46875 1790.410156 1425.179688 1807.394531 1433.5 1818.328125 C 1447.980469 1837.34375 1512.5 1847.0625 1526.648438 1789.820312 C 1530.070312 1775.972656 1530.300781 1775.582031 1537.851562 1767.878906 C 1566.550781 1738.609375 1551.238281 1725.46875 1558.199219 1709.40625 C 1571.949219 1677.675781 1561.960938 1659.109375 1565.75 1631.164062 C 1569.519531 1603.367188 1576.078125 1580.128906 1577.53125 1551.664062 C 1578.171875 1538.980469 1579.570312 1526.691406 1580.910156 1514.449219 L 1459.261719 1514.449219 "/>
<path fill-rule="evenodd" fill="rgb(94.139099%, 67.381287%, 0%)" fill-opacity="1" d="M 1450.480469 1829.363281 C 1475.28125 1838.238281 1515.789062 1833.742188 1526.648438 1789.820312 C 1530.070312 1775.972656 1530.300781 1775.582031 1537.851562 1767.878906 C 1566.550781 1738.609375 1551.238281 1725.46875 1558.199219 1709.40625 C 1571.949219 1677.675781 1561.960938 1659.109375 1565.75 1631.164062 C 1569.519531 1603.367188 1576.078125 1580.128906 1577.53125 1551.664062 C 1578.171875 1538.980469 1579.570312 1526.691406 1580.910156 1514.449219 L 1557.660156 1514.449219 C 1557.511719 1529.382812 1557.699219 1544.355469 1558.339844 1559.3125 C 1558.53125 1563.820312 1546.28125 1650.078125 1539.691406 1693.8125 C 1532.339844 1742.675781 1498.558594 1803.769531 1454.121094 1827.304688 C 1452.820312 1827.992188 1451.621094 1828.679688 1450.480469 1829.363281 "/>
<path fill-rule="evenodd" fill="rgb(85.9375%, 72.459412%, 64.256287%)" fill-opacity="1" d="M 1530.429688 388.921875 L 1532.601562 422 C 1532.421875 429.648438 1523.960938 436.011719 1536.25 461.609375 C 1539.828125 469.070312 1542.578125 472.011719 1551.890625 472.359375 C 1555.121094 522.371094 1551.640625 513.320312 1506.898438 530.058594 C 1506.289062 530.289062 1505.679688 530.519531 1505.058594 530.75 C 1530.71875 546.558594 1613.609375 588.449219 1693.441406 529.101562 C 1685.191406 525.800781 1676.960938 522.730469 1668.949219 519.878906 C 1658.160156 516.03125 1657.960938 498.289062 1657.46875 488.160156 L 1657.710938 486.808594 C 1656.628906 471.808594 1660.859375 474.070312 1667.199219 469.378906 C 1670.609375 466.851562 1675.308594 458.21875 1677.480469 452.171875 C 1682.691406 437.660156 1678.210938 437.460938 1678.589844 428.269531 L 1681.621094 403.140625 C 1680.570312 389.351562 1680.738281 376.25 1677.269531 362.539062 C 1666.511719 291.269531 1541.339844 270.128906 1530.429688 388.921875 "/>
<path fill-rule="evenodd" fill="rgb(19.993591%, 19.993591%, 19.993591%)" fill-opacity="1" d="M 1672 393.660156 C 1674.5 400 1675.261719 403.910156 1675.03125 410.730469 C 1674.648438 422.019531 1671.429688 433.859375 1661.46875 440.378906 C 1650.480469 447.578125 1632.210938 447.449219 1622.898438 437.558594 C 1621.761719 436.351562 1620.738281 435.03125 1619.839844 433.628906 C 1618.089844 430.910156 1616.808594 427.941406 1615.738281 424.898438 C 1614.53125 421.46875 1613.628906 417.949219 1612.429688 414.53125 C 1611.710938 412.488281 1610.679688 409.898438 1609.121094 408.339844 C 1607.5 406.699219 1604.769531 406.121094 1603.011719 407.839844 C 1601.75 409.070312 1600.609375 412.371094 1600.050781 414.019531 C 1598.71875 417.941406 1597.628906 421.890625 1596.121094 425.761719 C 1591.621094 437.21875 1584.308594 444.96875 1571.21875 445.441406 C 1559.351562 445.871094 1548.460938 441.808594 1542.078125 431.371094 C 1539.480469 427.121094 1537.941406 422.28125 1537.25 417.359375 C 1535.890625 407.691406 1537.75 393.761719 1544.671875 386.328125 C 1553.039062 377.351562 1574.011719 379.789062 1585.449219 379.789062 C 1590.011719 379.789062 1594.578125 380.359375 1598.75 382.289062 C 1600.078125 382.910156 1601.300781 383.640625 1602.519531 384.449219 C 1603.179688 384.890625 1603.878906 385.390625 1604.578125 385.761719 C 1605.171875 386.070312 1605.601562 386.160156 1606.269531 386.140625 C 1606.910156 386.128906 1607.339844 386.019531 1607.910156 385.730469 C 1608.640625 385.359375 1609.351562 384.859375 1610.039062 384.421875 C 1611.28125 383.628906 1612.519531 382.910156 1613.859375 382.300781 C 1618.089844 380.390625 1622.679688 379.808594 1627.28125 379.789062 C 1633.75 379.769531 1640.21875 379.21875 1646.671875 379.261719 C 1652.5 379.308594 1658.570312 379.921875 1663.621094 383.101562 C 1667.621094 385.621094 1670.28125 389.300781 1672 393.660156 Z M 1669.371094 394.691406 C 1671.730469 400.679688 1672.429688 404.199219 1672.210938 410.640625 C 1671.859375 420.941406 1669.058594 432.050781 1659.921875 438.019531 C 1656.601562 440.199219 1652.769531 441.558594 1648.851562 442.199219 C 1640.789062 443.5 1630.761719 441.800781 1624.949219 435.628906 C 1623.929688 434.539062 1623.019531 433.359375 1622.210938 432.101562 C 1620.578125 429.570312 1619.390625 426.800781 1618.398438 423.96875 C 1617.191406 420.539062 1616.289062 417.011719 1615.089844 413.589844 C 1614.210938 411.089844 1613.019531 408.261719 1611.121094 406.351562 C 1608.390625 403.601562 1603.921875 403.011719 1601.039062 405.828125 C 1599.339844 407.488281 1598.128906 410.890625 1597.378906 413.109375 C 1596.070312 416.988281 1594.988281 420.910156 1593.488281 424.730469 C 1589.410156 435.128906 1583.050781 442.191406 1571.121094 442.621094 C 1560.320312 443.011719 1550.308594 439.421875 1544.488281 429.898438 C 1542.089844 425.980469 1540.679688 421.511719 1540.039062 416.96875 C 1538.808594 408.179688 1540.429688 395.019531 1546.730469 388.261719 C 1554.128906 380.320312 1575.230469 382.609375 1585.449219 382.609375 C 1589.578125 382.609375 1593.78125 383.101562 1597.570312 384.851562 C 1598.769531 385.410156 1599.859375 386.070312 1600.96875 386.800781 C 1601.710938 387.289062 1602.46875 387.828125 1603.261719 388.25 C 1604.269531 388.789062 1605.171875 388.988281 1606.320312 388.96875 C 1607.390625 388.949219 1608.25 388.730469 1609.191406 388.238281 C 1610.011719 387.828125 1610.789062 387.289062 1611.558594 386.800781 C 1612.691406 386.078125 1613.808594 385.421875 1615.03125 384.871094 C 1618.871094 383.128906 1623.109375 382.628906 1627.289062 382.609375 C 1633.75 382.589844 1640.210938 382.039062 1646.648438 382.078125 C 1651.898438 382.121094 1657.558594 382.621094 1662.109375 385.480469 C 1665.601562 387.679688 1667.878906 390.898438 1669.371094 394.691406 "/>
<path fill-rule="evenodd" fill="rgb(91.014099%, 91.014099%, 91.014099%)" fill-opacity="1" d="M 1666.75 395.730469 C 1661.140625 381.5 1646.890625 385.308594 1627.300781 385.429688 C 1613.050781 385.429688 1613.121094 391.671875 1606.371094 391.789062 C 1599.289062 391.910156 1599.800781 385.429688 1585.449219 385.429688 C 1575.21875 385.429688 1555.121094 383.398438 1548.800781 390.179688 C 1538.960938 400.730469 1536.699219 441.039062 1571.019531 439.800781 C 1593.578125 438.988281 1591.378906 411.320312 1599.070312 403.808594 C 1602.910156 400.050781 1609.128906 400.339844 1613.121094 404.359375 C 1619.691406 410.949219 1619.078125 425.269531 1627.011719 433.691406 C 1633.691406 440.800781 1648.679688 442.011719 1658.378906 435.660156 C 1666.039062 430.640625 1669.039062 421.148438 1669.390625 410.539062 C 1669.589844 404.46875 1669.039062 401.539062 1666.75 395.730469 "/>
<path fill-rule="evenodd" fill="rgb(76.5625%, 85.9375%, 85.9375%)" fill-opacity="1" d="M 1558.621094 469.75 C 1571.738281 475.53125 1580.640625 479.300781 1608.988281 480.070312 C 1623.378906 480.070312 1641.121094 477.550781 1652.371094 468.289062 C 1647.839844 438.53125 1628.691406 460.160156 1614.878906 437.859375 C 1606.761719 424.769531 1607.410156 422.121094 1598.488281 437.191406 C 1583.71875 462.160156 1562.820312 437.730469 1558.621094 469.75 "/>
<path fill-rule="evenodd" fill="rgb(90.234375%, 90.234375%, 90.234375%)" fill-opacity="1" d="M 1648.230469 486.46875 L 1652.671875 473.78125 C 1615.519531 486.949219 1595.308594 485.210938 1558.738281 472.449219 C 1561.320312 486.058594 1562.859375 490.679688 1571.289062 497.171875 C 1595.371094 515.71875 1631.46875 509.28125 1645.648438 491.089844 C 1647.039062 489.308594 1647.410156 488.519531 1648.230469 486.46875 "/>
<path fill-rule="evenodd" fill="rgb(91.796875%, 93.359375%, 94.53125%)" fill-opacity="1" d="M 1526.878906 370.289062 L 1526.878906 468.480469 C 1526.878906 494.070312 1526.21875 509.199219 1518.738281 519.5 C 1515.511719 523.929688 1511.019531 527.480469 1504.761719 530.570312 C 1530.28125 546.359375 1614.671875 589.390625 1695.398438 527.640625 C 1686.949219 521.070312 1680.179688 513.238281 1679.730469 500.878906 C 1679.441406 492.679688 1679.371094 484.011719 1679.460938 475.050781 C 1679.800781 440.679688 1682.351562 402.089844 1682.351562 370 Z M 1504.761719 530.570312 C 1502.429688 531.730469 1499.851562 532.820312 1497 533.871094 C 1497 533.871094 1605.601562 612.949219 1700.96875 531.679688 C 1699.070312 530.371094 1697.199219 529.03125 1695.398438 527.640625 C 1614.671875 589.390625 1530.28125 546.359375 1504.761719 530.570312 Z M 1535.601562 369.328125 C 1535.011719 393.441406 1528.710938 460.699219 1560.949219 472.769531 C 1577.578125 478.988281 1630.949219 492.78125 1659.011719 464.160156 C 1683.269531 434.941406 1675.621094 419.359375 1675.621094 369.328125 L 1535.601562 369.328125 "/>
<path fill-rule="evenodd" fill="rgb(90.234375%, 90.234375%, 90.234375%)" fill-opacity="1" d="M 1513.449219 525.078125 C 1511.019531 527.089844 1508.148438 528.898438 1504.761719 530.570312 C 1530.28125 546.359375 1614.671875 589.390625 1695.398438 527.640625 C 1686.949219 521.070312 1680.179688 513.238281 1679.730469 500.878906 C 1679.441406 492.679688 1679.371094 484.011719 1679.460938 475.050781 C 1679.800781 440.980469 1682.308594 402.761719 1682.351562 370.851562 C 1678.800781 369.578125 1675.800781 368.691406 1675.621094 369.328125 C 1675.621094 408.519531 1680.308594 426.570312 1670.691406 446.589844 C 1669.820312 470.898438 1669.171875 492.449219 1668.621094 496.648438 C 1667.699219 503.691406 1659.898438 513.75 1649.5 523.640625 C 1614.460938 557 1556.089844 547.390625 1513.449219 525.078125 Z M 1700.53125 531.378906 C 1700.351562 531.761719 1700.160156 532.140625 1699.980469 532.5 C 1696.890625 535.101562 1693.789062 537.519531 1690.679688 539.789062 C 1675.519531 545.03125 1668.351562 551.679688 1659.121094 557.589844 C 1591.398438 585.539062 1525.839844 551.78125 1504.351562 538.660156 C 1503.5 537.328125 1502.328125 534.921875 1501.230469 532.199219 C 1502.460938 531.671875 1503.640625 531.128906 1504.761719 530.570312 C 1530.28125 546.359375 1614.671875 589.390625 1695.398438 527.640625 C 1697.058594 528.921875 1698.78125 530.160156 1700.53125 531.378906 "/>
<path fill-rule="evenodd" fill="rgb(91.796875%, 93.359375%, 94.53125%)" fill-opacity="1" d="M 1525.839844 367.179688 C 1532.199219 324.679688 1570.410156 300.71875 1606.699219 300.421875 C 1646.46875 300.101562 1681.851562 330.828125 1685.871094 367.179688 Z M 1524.058594 367.179688 L 1688.28125 367.179688 L 1688.28125 375.078125 L 1524.058594 375.078125 L 1524.058594 367.179688 "/>
<path fill-rule="evenodd" fill="rgb(1.179504%, 45.872498%, 53.709412%)" fill-opacity="1" d="M 1602.078125 371.269531 L 1602.078125 300.421875 L 1610.261719 300.421875 L 1610.261719 371.269531 L 1602.078125 371.269531 "/>
<path fill-rule="evenodd" fill="rgb(1.179504%, 45.872498%, 53.709412%)" fill-opacity="1" d="M 1504.890625 530.648438 C 1502.519531 531.828125 1499.898438 532.941406 1497 534.011719 C 1497 534.011719 1605.601562 613.078125 1700.96875 531.820312 C 1699.039062 530.488281 1697.140625 529.121094 1695.308594 527.710938 C 1614.738281 589.261719 1530.550781 546.488281 1504.890625 530.648438 "/>
<path fill-rule="evenodd" fill="rgb(0%, 45.483398%, 53.318787%)" fill-opacity="1" d="M 1600.839844 897.171875 L 1600.839844 560.808594 L 1609.03125 560.808594 L 1609.03125 897.171875 L 1600.839844 897.171875 "/>
<path fill-rule="evenodd" fill="rgb(0%, 45.483398%, 53.318787%)" fill-opacity="1" d="M 1463.308594 892.570312 L 1755.441406 892.570312 L 1755.988281 896.230469 L 1757.828125 900.609375 L 1461.890625 900.75 L 1463.308594 892.570312 "/>
<path fill-rule="evenodd" fill="rgb(1.179504%, 45.872498%, 53.709412%)" fill-opacity="1" d="M 1524.058594 367.179688 L 1688.28125 367.179688 L 1688.28125 375.371094 L 1524.058594 375.371094 L 1524.058594 367.179688 "/>
<path fill-rule="evenodd" fill="rgb(91.796875%, 93.359375%, 94.53125%)" fill-opacity="1" d="M 934.699219 441.859375 C 905.113281 453.140625 876.960938 466.480469 860.582031 492.5 C 855.097656 501.21875 850.289062 511.128906 845.425781 520.839844 C 813.160156 585.210938 794.363281 642.039062 775.992188 714.101562 C 765.9375 753.53125 747.230469 830.191406 749.09375 869.53125 C 751.28125 915.828125 753.421875 890.25 750.929688 938.550781 C 750.539062 946.558594 752.613281 947.859375 755.207031 952.890625 C 758.175781 958.640625 755.894531 961.089844 755.894531 968.570312 C 755.894531 1010.28125 742.390625 1007.738281 742.390625 1055.601562 C 742.390625 1067 752.230469 1107.890625 757.269531 1114.328125 L 776.5625 1131.058594 C 781.683594 1134.933594 785.453125 1140.546875 790.835938 1143.65625 C 794.878906 1145.992188 799.148438 1147.980469 801.574219 1143.179688 C 805.851562 1134.714844 806.648438 1130.769531 802.304688 1117.40625 C 796.953125 1106.199219 789.792969 1102.269531 789.792969 1088.609375 C 789.792969 1081.648438 788.523438 1068.5 792.003906 1063.660156 C 803.644531 1072.210938 784.429688 1111.429688 810.007812 1111.730469 C 812.617188 1107.679688 812.390625 1106.28125 813.074219 1100.578125 C 816.695312 1070.429688 823.113281 1036.480469 809.71875 1009.410156 C 800.578125 990.941406 809.742188 981.710938 812.296875 962.058594 C 816.207031 931.960938 841.867188 927.148438 851.585938 852.761719 C 852.867188 842.949219 852.351562 833.429688 853.542969 824.539062 C 854.304688 818.851562 867.59375 802.890625 872.695312 785.109375 C 876.257812 772.699219 879.796875 745.828125 885.238281 737.179688 C 884.164062 777.578125 882.332031 810.851562 888.859375 850.800781 C 890.507812 860.878906 881.960938 882.390625 879.28125 893.761719 C 863.578125 960.421875 865.097656 1131.605469 865.097656 1198.308594 C 865.097656 1347.890625 870.277344 1346.570312 877.398438 1460.519531 C 880.148438 1470.355469 888.003906 1581 888.589844 1600.621094 C 890.394531 1661.152344 893.246094 1721.503906 893.246094 1781.855469 C 893.246094 1811.269531 874.953125 1827.15625 860.367188 1865.316406 C 855.097656 1879.105469 850.4375 1897.558594 859.476562 1909.433594 C 875.203125 1930.09375 945.289062 1940.652344 960.664062 1878.46875 C 964.382812 1863.425781 964.628906 1863 972.832031 1854.632812 C 1004.011719 1822.835938 987.378906 1808.558594 994.941406 1791.109375 C 1009.878906 1756.640625 999.027344 1736.472656 1003.140625 1706.117188 C 1007.230469 1675.914062 1014.359375 1650.671875 1015.929688 1619.753906 C 1017.519531 1588.511719 1023.289062 1559.484375 1023.179688 1528.265625 C 1023.140625 1515.035156 1025.03125 1508.613281 1026.179688 1496.550781 C 1032.039062 1496.71875 1041.320312 1083.859375 1054.800781 1082.421875 C 1067.210938 1081.078125 1083.859375 1491.203125 1089.410156 1490.148438 C 1093.269531 1549.683594 1105.269531 1618.3125 1110.949219 1680.574219 C 1112.898438 1701.976562 1112.488281 1726.378906 1115.160156 1746.671875 C 1116.390625 1756.0625 1121.488281 1768.828125 1121.730469 1774.441406 C 1122.019531 1781.289062 1120.320312 1784.492188 1122.28125 1792.070312 C 1124.378906 1800.175781 1125.578125 1795.722656 1123.628906 1805.890625 C 1118.78125 1831.183594 1126.769531 1845.261719 1140.011719 1857.003906 C 1147.539062 1863.683594 1151.828125 1863.863281 1156.261719 1875.25 C 1167.191406 1903.378906 1169.058594 1925.304688 1215.148438 1925.304688 C 1245.128906 1925.304688 1271.78125 1908.070312 1261.128906 1875.457031 C 1256.328125 1860.753906 1226.171875 1820.613281 1225.550781 1811.867188 C 1225.539062 1811.730469 1228.769531 1805.796875 1228.449219 1799.933594 C 1228.191406 1795.382812 1227.789062 1790.96875 1227.570312 1786.375 C 1223.859375 1711.316406 1242.320312 1633.65625 1242.550781 1558.605469 C 1244.25 1405.007812 1251.941406 1295.421875 1257.269531 1120.113281 C 1254.058594 1059.820312 1248.300781 910.800781 1224.75 859.800781 C 1221.78125 853.351562 1230.25 836.199219 1230.25 811.011719 C 1230.25 774.28125 1227.910156 737.578125 1224.75 702.070312 C 1228.929688 735.210938 1242.648438 768.078125 1249.539062 800.640625 C 1253.929688 821.359375 1262.191406 824.328125 1263.511719 848.351562 C 1267.511719 920.898438 1281.808594 907.621094 1290.21875 944.421875 C 1292.179688 952.96875 1297.238281 957.859375 1303.980469 960.53125 C 1304.128906 961.378906 1304.269531 962.238281 1304.390625 963.128906 C 1306.941406 982.789062 1316.101562 992.011719 1306.960938 1010.488281 C 1293.570312 1037.550781 1299.988281 1071.5 1303.609375 1101.648438 C 1304.289062 1107.351562 1304.058594 1108.75 1306.671875 1112.800781 C 1332.25 1112.5 1313.039062 1073.28125 1324.679688 1064.738281 C 1328.160156 1069.570312 1326.890625 1082.71875 1326.890625 1089.679688 C 1326.890625 1103.339844 1319.730469 1107.269531 1314.371094 1118.480469 C 1308.289062 1131.21875 1310.878906 1135.886719 1315.238281 1144.519531 C 1316.761719 1147.53125 1316.78125 1147.445312 1320.589844 1146.71875 C 1329.128906 1145.078125 1333.488281 1137.148438 1340.121094 1132.128906 L 1359.410156 1115.402344 C 1364.449219 1108.960938 1374.289062 1068.070312 1374.289062 1056.671875 C 1374.289062 1008.808594 1360.789062 1011.351562 1360.789062 969.640625 C 1360.789062 965.738281 1360.171875 963.210938 1359.988281 960.871094 L 1360.371094 960.871094 C 1366.050781 950.019531 1371.300781 940.609375 1371.300781 916.050781 C 1371.300781 838.769531 1346.351562 743.46875 1325.550781 669.160156 C 1318.710938 644.730469 1311.101562 615.691406 1301.910156 593.769531 C 1285.109375 553.691406 1251.429688 493.320312 1224.988281 475.53125 C 1206.140625 462.851562 1183.851562 451.929688 1161.289062 442.53125 C 1051.960938 535.300781 927.609375 444.78125 927.609375 444.78125 C 930.15625 443.828125 932.515625 442.871094 934.699219 441.859375 "/>
<path fill-rule="evenodd" fill="rgb(0%, 45.483398%, 53.318787%)" fill-opacity="1" d="M 756.722656 959.191406 C 756.625 961.710938 755.894531 964.339844 755.894531 968.570312 C 755.894531 1010.28125 742.390625 1007.738281 742.390625 1055.601562 C 742.390625 1067 752.230469 1107.890625 757.269531 1114.328125 L 776.5625 1131.058594 C 781.683594 1134.933594 785.453125 1140.546875 790.835938 1143.65625 C 794.878906 1145.992188 799.148438 1147.980469 801.574219 1143.179688 C 805.851562 1134.714844 806.648438 1130.769531 802.304688 1117.40625 C 796.953125 1106.199219 789.792969 1102.269531 789.792969 1088.609375 C 789.792969 1081.648438 788.523438 1068.5 792.003906 1063.660156 C 803.644531 1072.210938 784.429688 1111.429688 810.007812 1111.730469 C 812.617188 1107.679688 812.390625 1106.28125 813.074219 1100.578125 C 816.695312 1070.429688 823.113281 1036.480469 809.71875 1009.410156 C 800.578125 990.941406 809.742188 981.710938 812.296875 962.058594 C 812.421875 961.078125 812.574219 960.121094 812.746094 959.191406 L 756.722656 959.191406 "/>
<path fill-rule="evenodd" fill="rgb(0%, 45.483398%, 53.318787%)" fill-opacity="1" d="M 1303.859375 960.480469 L 1303.980469 960.53125 C 1304.128906 961.378906 1304.269531 962.238281 1304.390625 963.128906 C 1306.941406 982.789062 1316.101562 992.011719 1306.960938 1010.488281 C 1293.570312 1037.550781 1299.988281 1071.5 1303.609375 1101.648438 C 1304.289062 1107.351562 1304.058594 1108.75 1306.671875 1112.800781 C 1332.25 1112.5 1313.039062 1073.28125 1324.679688 1064.738281 C 1328.160156 1069.570312 1326.890625 1082.71875 1326.890625 1089.679688 C 1326.890625 1103.339844 1319.730469 1107.269531 1314.371094 1118.480469 C 1308.289062 1131.21875 1310.878906 1135.886719 1315.238281 1144.519531 C 1316.761719 1147.53125 1316.78125 1147.445312 1320.589844 1146.71875 C 1329.128906 1145.078125 1333.488281 1137.148438 1340.121094 1132.128906 L 1359.410156 1115.402344 C 1364.449219 1108.960938 1374.289062 1068.070312 1374.289062 1056.671875 C 1374.289062 1008.808594 1360.789062 1011.351562 1360.789062 969.640625 C 1360.789062 965.738281 1360.171875 963.210938 1359.988281 960.871094 L 1360.371094 960.871094 L 1360.578125 960.480469 L 1303.859375 960.480469 "/>
<path fill-rule="evenodd" fill="rgb(90.234375%, 90.234375%, 90.234375%)" fill-opacity="1" d="M 886.46875 1923.851562 C 913.347656 1929.65625 950.046875 1921.40625 960.664062 1878.46875 C 964.382812 1863.425781 964.628906 1863 972.832031 1854.632812 C 1004.011719 1822.835938 987.378906 1808.558594 994.941406 1791.109375 C 1009.878906 1756.640625 999.027344 1736.472656 1003.140625 1706.117188 C 1007.230469 1675.914062 1014.359375 1650.671875 1015.929688 1619.753906 C 1017.519531 1588.515625 1023.289062 1559.484375 1023.179688 1528.265625 C 1023.140625 1515.035156 1025.03125 1508.613281 1026.179688 1496.550781 C 1031.660156 1496.707031 1040.109375 1136.433594 1052.191406 1087.851562 C 1041.359375 1105.121094 1006.660156 1131.214844 1010.878906 1271.894531 C 1014.011719 1376.515625 992.761719 1499.160156 997.976562 1621.078125 C 998.199219 1626.253906 984.148438 1725.21875 976.59375 1775.390625 C 968.601562 1828.457031 933.445312 1894.09375 886.46875 1923.851562 "/>
<path fill-rule="evenodd" fill="rgb(90.234375%, 90.234375%, 90.234375%)" fill-opacity="1" d="M 811.773438 965.460938 C 811.8125 965.238281 811.851562 965.03125 811.886719 964.808594 C 811.851562 965.03125 811.8125 965.238281 811.773438 965.460938 Z M 811.90625 964.691406 C 811.949219 964.441406 811.988281 964.191406 812.027344 963.929688 C 811.988281 964.191406 811.949219 964.441406 811.90625 964.691406 Z M 812.039062 963.859375 C 812.085938 963.570312 812.128906 963.28125 812.171875 962.980469 C 812.128906 963.28125 812.085938 963.570312 812.039062 963.859375 Z M 812.171875 962.960938 C 812.214844 962.671875 812.257812 962.359375 812.296875 962.058594 C 812.355469 961.609375 812.417969 961.160156 812.488281 960.71875 C 812.417969 961.160156 812.355469 961.609375 812.296875 962.058594 C 812.257812 962.371094 812.214844 962.671875 812.171875 962.960938 Z M 812.503906 960.609375 C 812.566406 960.199219 812.636719 959.800781 812.707031 959.410156 C 812.636719 959.800781 812.570312 960.199219 812.503906 960.609375 Z M 812.746094 959.191406 C 817.867188 931.570312 842.1875 924.71875 851.589844 852.761719 C 852.867188 842.949219 852.351562 833.429688 853.542969 824.539062 C 854.304688 818.851562 867.59375 802.890625 872.695312 785.109375 C 875.445312 775.519531 878.1875 757.289062 881.800781 745.511719 C 882.382812 742.589844 884.253906 737.441406 885.238281 737.179688 C 876.976562 739.359375 831.070312 823.28125 832.089844 847.121094 C 832.199219 849.710938 811.898438 933.039062 810.613281 959.191406 L 812.746094 959.191406 "/>
<path fill-rule="evenodd" fill="rgb(90.234375%, 90.234375%, 90.234375%)" fill-opacity="1" d="M 1239.640625 1603.613281 C 1241.121094 1586.1875 1242.128906 1568.835938 1242.191406 1551.621094 C 1243.878906 1398.027344 1251.578125 1288.441406 1256.898438 1113.132812 C 1254.570312 1069.289062 1250.890625 978.511719 1239.988281 912.640625 C 1237.101562 895.121094 1231.558594 879.140625 1227.539062 866.488281 C 1224.320312 875.121094 1221.21875 888.238281 1219.011719 901.699219 C 1203.730469 995.128906 1237.929688 1219.769531 1211.71875 1283.320312 C 1208.269531 1291.683594 1195.730469 1598.546875 1211.941406 1601.105469 C 1222.179688 1602.71875 1231.371094 1603.527344 1239.640625 1603.613281 Z M 1226.730469 858.371094 L 1226.679688 858.25 L 1226.488281 858.378906 Z M 1226.730469 858.371094 "/>
<path fill-rule="evenodd" fill="rgb(90.234375%, 90.234375%, 90.234375%)" fill-opacity="1" d="M 1361.558594 985.300781 C 1361.53125 985 1361.5 984.699219 1361.46875 984.398438 C 1361.5 984.699219 1361.53125 985 1361.558594 985.300781 Z M 1361.410156 983.851562 C 1361.378906 983.570312 1361.359375 983.289062 1361.328125 983 C 1361.359375 983.289062 1361.378906 983.570312 1361.410156 983.851562 Z M 1360.578125 960.480469 C 1366.171875 949.800781 1371.300781 940.320312 1371.300781 916.050781 C 1371.300781 838.769531 1346.351562 743.46875 1325.550781 669.160156 C 1318.710938 644.730469 1311.101562 615.691406 1301.910156 593.769531 C 1285.109375 553.691406 1251.429688 493.320312 1224.988281 475.53125 C 1215.390625 469.070312 1204.898438 463.070312 1193.941406 457.5 C 1195.890625 471.628906 1267.699219 595.539062 1280.269531 657.828125 C 1298.519531 748.320312 1347.121094 735.449219 1347.121094 907.429688 C 1347.121094 924.96875 1344.699219 945.011719 1344.820312 960.480469 L 1360.578125 960.480469 "/>
<path fill-rule="evenodd" fill="rgb(100%, 71.679688%, 0%)" fill-opacity="1" d="M 1094.539062 1569.609375 C 1099.171875 1605.53125 1104.171875 1641.964844 1107.320312 1676.542969 C 1109.378906 1699.144531 1108.949219 1724.917969 1111.769531 1746.347656 C 1113.070312 1756.269531 1118.449219 1769.75 1118.699219 1775.679688 C 1119.011719 1782.910156 1117.21875 1786.292969 1119.289062 1794.296875 C 1121.5 1802.855469 1122.769531 1798.152344 1120.710938 1808.890625 C 1115.589844 1835.601562 1124.03125 1850.46875 1138.011719 1862.871094 C 1145.960938 1869.925781 1150.488281 1870.117188 1155.171875 1882.144531 C 1166.71875 1911.847656 1168.691406 1935.003906 1217.371094 1935.003906 C 1249.03125 1935.003906 1277.171875 1916.804688 1265.921875 1882.359375 C 1260.851562 1866.832031 1229 1824.441406 1228.351562 1815.203125 C 1228.339844 1815.058594 1231.75 1808.792969 1231.410156 1802.597656 C 1231.140625 1797.792969 1230.71875 1793.132812 1230.480469 1788.277344 C 1226.921875 1716.28125 1242.679688 1642.019531 1245.78125 1569.609375 L 1094.539062 1569.609375 "/>
<path fill-rule="evenodd" fill="rgb(94.139099%, 67.381287%, 0%)" fill-opacity="1" d="M 1222.359375 1934.847656 C 1251.898438 1933.03125 1276.578125 1914.984375 1265.921875 1882.359375 C 1260.851562 1866.832031 1229 1824.441406 1228.351562 1815.203125 C 1228.339844 1815.058594 1231.75 1808.792969 1231.410156 1802.597656 C 1231.140625 1797.792969 1230.71875 1793.132812 1230.480469 1788.277344 C 1226.921875 1716.28125 1242.679688 1642.019531 1245.78125 1569.609375 L 1204.578125 1569.609375 C 1203.960938 1613.023438 1201.738281 1744.871094 1200.339844 1761.039062 C 1194.75 1825.679688 1197.140625 1802.734375 1225.789062 1856.835938 C 1238.410156 1880.679688 1266.691406 1904.605469 1225.789062 1932.351562 C 1224.539062 1933.199219 1223.410156 1934.027344 1222.359375 1934.847656 "/>
<path fill-rule="evenodd" fill="rgb(100%, 71.679688%, 0%)" fill-opacity="1" d="M 884.308594 1569.609375 C 884.945312 1579.890625 885.382812 1587.941406 885.507812 1592.105469 C 887.414062 1656.03125 890.421875 1719.765625 890.421875 1783.507812 C 890.421875 1814.574219 871.105469 1831.347656 855.699219 1871.652344 C 850.136719 1886.214844 845.214844 1905.703125 854.761719 1918.246094 C 871.371094 1940.0625 945.390625 1951.210938 961.625 1885.539062 C 965.554688 1869.652344 965.8125 1869.203125 974.476562 1860.367188 C 1007.398438 1826.785156 989.839844 1811.710938 997.824219 1793.28125 C 1013.601562 1756.878906 1002.140625 1735.578125 1006.480469 1703.519531 C 1010.808594 1671.625 1018.328125 1644.964844 1020 1612.308594 C 1020.738281 1597.753906 1022.339844 1583.65625 1023.878906 1569.609375 L 884.308594 1569.609375 "/>
<path fill-rule="evenodd" fill="rgb(94.139099%, 67.381287%, 0%)" fill-opacity="1" d="M 874.234375 1930.910156 C 902.695312 1941.089844 949.167969 1935.929688 961.625 1885.539062 C 965.554688 1869.652344 965.8125 1869.203125 974.476562 1860.367188 C 1007.398438 1826.785156 989.839844 1811.710938 997.824219 1793.28125 C 1013.601562 1756.878906 1002.140625 1735.578125 1006.480469 1703.519531 C 1010.808594 1671.625 1018.328125 1644.964844 1020 1612.308594 C 1020.738281 1597.757812 1022.339844 1583.65625 1023.878906 1569.609375 L 997.207031 1569.609375 C 997.035156 1586.746094 997.242188 1603.921875 997.976562 1621.078125 C 998.199219 1626.253906 984.148438 1725.21875 976.59375 1775.390625 C 968.148438 1831.449219 929.398438 1901.546875 878.414062 1928.542969 C 876.921875 1929.332031 875.539062 1930.121094 874.234375 1930.910156 "/>
<path fill-rule="evenodd" fill="rgb(85.9375%, 72.459412%, 64.256287%)" fill-opacity="1" d="M 965.96875 278.320312 L 968.449219 316.261719 C 968.25 325.039062 958.539062 332.339844 972.636719 361.710938 C 976.75 370.269531 979.90625 373.640625 990.582031 374.050781 C 994.289062 431.421875 990.292969 421.039062 938.972656 440.238281 C 938.269531 440.511719 937.5625 440.769531 936.859375 441.039062 C 966.292969 459.171875 1061.390625 507.230469 1152.980469 439.140625 C 1143.511719 435.359375 1134.070312 431.839844 1124.890625 428.558594 C 1112.511719 424.148438 1112.269531 403.789062 1111.710938 392.160156 L 1111.988281 390.621094 C 1110.75 373.410156 1115.601562 376.011719 1122.871094 370.621094 C 1126.789062 367.71875 1132.179688 357.820312 1134.671875 350.878906 C 1140.640625 334.230469 1135.511719 334 1135.949219 323.449219 L 1139.421875 294.628906 C 1138.210938 278.808594 1138.410156 263.769531 1134.429688 248.058594 C 1122.078125 166.28125 978.476562 142.03125 965.96875 278.320312 "/>
<path fill-rule="evenodd" fill="rgb(19.993591%, 19.993591%, 19.993591%)" fill-opacity="1" d="M 1128.378906 283.75 C 1131.25 291.03125 1132.121094 295.511719 1131.859375 303.339844 C 1131.429688 316.289062 1127.730469 329.878906 1116.300781 337.359375 C 1103.691406 345.609375 1082.730469 345.46875 1072.050781 334.121094 C 1070.738281 332.730469 1069.570312 331.21875 1068.539062 329.609375 C 1066.53125 326.488281 1065.058594 323.089844 1063.828125 319.601562 C 1062.449219 315.660156 1061.421875 311.621094 1060.039062 307.691406 C 1059.210938 305.351562 1058.03125 302.378906 1056.25 300.589844 C 1054.378906 298.71875 1051.261719 298.050781 1049.230469 300.03125 C 1047.789062 301.441406 1046.480469 305.21875 1045.839844 307.109375 C 1044.308594 311.601562 1043.058594 316.148438 1041.320312 320.578125 C 1036.171875 333.71875 1027.78125 342.621094 1012.761719 343.160156 C 999.144531 343.648438 986.652344 339 979.328125 327.019531 C 976.34375 322.140625 974.578125 316.589844 973.785156 310.941406 C 972.230469 299.839844 974.359375 283.859375 982.296875 275.339844 C 991.902344 265.039062 1015.960938 267.839844 1029.089844 267.839844 C 1034.320312 267.839844 1039.558594 268.488281 1044.351562 270.710938 C 1045.871094 271.421875 1047.269531 272.261719 1048.671875 273.179688 C 1049.429688 273.691406 1050.230469 274.261719 1051.03125 274.691406 C 1051.710938 275.039062 1052.199219 275.140625 1052.96875 275.128906 C 1053.710938 275.121094 1054.210938 274.988281 1054.851562 274.660156 C 1055.691406 274.230469 1056.511719 273.660156 1057.300781 273.148438 C 1058.71875 272.238281 1060.140625 271.421875 1061.691406 270.71875 C 1066.53125 268.519531 1071.800781 267.859375 1077.078125 267.839844 C 1084.5 267.808594 1091.921875 267.179688 1099.328125 267.238281 C 1106.019531 267.28125 1112.96875 267.988281 1118.769531 271.628906 C 1123.359375 274.53125 1126.410156 278.75 1128.378906 283.75 Z M 1125.371094 284.941406 C 1128.070312 291.808594 1128.871094 295.839844 1128.621094 303.230469 C 1128.230469 315.050781 1125 327.789062 1114.53125 334.648438 C 1110.710938 337.148438 1106.320312 338.710938 1101.828125 339.441406 C 1092.578125 340.929688 1081.070312 338.980469 1074.398438 331.898438 C 1073.230469 330.660156 1072.191406 329.300781 1071.261719 327.859375 C 1069.398438 324.949219 1068.03125 321.769531 1066.890625 318.519531 C 1065.5 314.589844 1064.46875 310.550781 1063.089844 306.621094 C 1062.078125 303.75 1060.71875 300.5 1058.539062 298.308594 C 1055.410156 295.160156 1050.28125 294.480469 1046.96875 297.710938 C 1045.019531 299.621094 1043.628906 303.519531 1042.769531 306.070312 C 1041.269531 310.511719 1040.03125 315.019531 1038.308594 319.398438 C 1033.628906 331.328125 1026.328125 339.429688 1012.640625 339.929688 C 1000.25 340.371094 988.769531 336.261719 982.089844 325.328125 C 979.335938 320.828125 977.722656 315.699219 976.992188 310.488281 C 975.578125 300.421875 977.433594 285.308594 984.664062 277.550781 C 993.148438 268.449219 1017.359375 271.078125 1029.089844 271.078125 C 1033.828125 271.078125 1038.640625 271.628906 1042.988281 273.648438 C 1044.359375 274.289062 1045.621094 275.050781 1046.890625 275.878906 C 1047.738281 276.449219 1048.609375 277.070312 1049.519531 277.550781 C 1050.679688 278.160156 1051.710938 278.390625 1053.03125 278.371094 C 1054.261719 278.351562 1055.238281 278.101562 1056.328125 277.539062 C 1057.261719 277.058594 1058.160156 276.449219 1059.039062 275.878906 C 1060.328125 275.050781 1061.621094 274.300781 1063.019531 273.671875 C 1067.429688 271.671875 1072.289062 271.101562 1077.089844 271.078125 C 1084.5 271.050781 1091.921875 270.421875 1099.300781 270.46875 C 1105.320312 270.519531 1111.820312 271.089844 1117.039062 274.371094 C 1121.039062 276.890625 1123.648438 280.589844 1125.371094 284.941406 "/>
<path fill-rule="evenodd" fill="rgb(91.014099%, 91.014099%, 91.014099%)" fill-opacity="1" d="M 1122.359375 286.128906 C 1115.929688 269.800781 1099.570312 274.171875 1077.101562 274.308594 C 1060.761719 274.308594 1060.828125 281.46875 1053.089844 281.601562 C 1044.96875 281.738281 1045.558594 274.308594 1029.089844 274.308594 C 1017.351562 274.308594 994.285156 271.980469 987.035156 279.761719 C 975.746094 291.871094 973.160156 338.109375 1012.53125 336.691406 C 1038.410156 335.761719 1035.890625 304.011719 1044.710938 295.398438 C 1049.121094 291.089844 1056.25 291.421875 1060.839844 296.019531 C 1068.359375 303.589844 1067.660156 320.019531 1076.761719 329.679688 C 1084.429688 337.828125 1101.628906 339.230469 1112.761719 331.941406 C 1121.550781 326.179688 1124.980469 315.300781 1125.390625 303.121094 C 1125.621094 296.148438 1124.988281 292.789062 1122.359375 286.128906 "/>
<path fill-rule="evenodd" fill="rgb(76.5625%, 85.9375%, 85.9375%)" fill-opacity="1" d="M 998.308594 371.050781 C 1013.359375 377.679688 1023.570312 382.011719 1056.089844 382.890625 C 1072.609375 382.890625 1092.949219 380 1105.859375 369.371094 C 1100.660156 335.230469 1078.691406 360.039062 1062.851562 334.46875 C 1053.539062 319.449219 1054.28125 316.410156 1044.050781 333.699219 C 1027.101562 362.351562 1003.121094 334.320312 998.308594 371.050781 "/>
<path fill-rule="evenodd" fill="rgb(90.234375%, 90.234375%, 90.234375%)" fill-opacity="1" d="M 1101.109375 390.230469 L 1106.199219 375.671875 C 1063.578125 390.78125 1040.390625 388.789062 998.445312 374.148438 C 1001.398438 389.769531 1003.171875 395.058594 1012.839844 402.511719 C 1040.46875 423.789062 1081.878906 416.398438 1098.160156 395.53125 C 1099.738281 393.488281 1100.179688 392.578125 1101.109375 390.230469 "/>
<path fill-rule="evenodd" fill="rgb(91.796875%, 93.359375%, 94.53125%)" fill-opacity="1" d="M 961.890625 256.941406 L 961.890625 369.589844 C 961.890625 398.949219 961.136719 416.308594 952.546875 428.121094 C 948.847656 433.210938 943.691406 437.28125 936.515625 440.828125 C 965.796875 458.941406 1062.609375 508.320312 1155.230469 437.460938 C 1145.53125 429.929688 1137.769531 420.949219 1137.261719 406.761719 C 1136.910156 397.359375 1136.839844 387.410156 1136.941406 377.140625 C 1137.328125 337.691406 1140.261719 293.421875 1140.261719 256.609375 Z M 936.515625 440.828125 C 933.839844 442.148438 930.882812 443.410156 927.609375 444.621094 C 927.609375 444.621094 1052.210938 535.328125 1161.621094 442.101562 C 1159.441406 440.601562 1157.289062 439.058594 1155.230469 437.460938 C 1062.609375 508.320312 965.796875 458.941406 936.515625 440.828125 Z M 971.894531 255.839844 C 971.21875 283.5 963.988281 360.671875 1000.980469 374.511719 C 1020.050781 381.648438 1081.28125 397.46875 1113.480469 364.628906 C 1141.308594 331.109375 1132.539062 313.238281 1132.539062 255.839844 L 971.894531 255.839844 "/>
<path fill-rule="evenodd" fill="rgb(90.234375%, 90.234375%, 90.234375%)" fill-opacity="1" d="M 946.480469 434.53125 C 943.6875 436.828125 940.398438 438.910156 936.515625 440.828125 C 965.796875 458.941406 1062.609375 508.320312 1155.230469 437.460938 C 1145.53125 429.929688 1137.769531 420.949219 1137.261719 406.761719 C 1136.910156 397.359375 1136.839844 387.410156 1136.941406 377.140625 C 1137.328125 338.039062 1140.210938 294.191406 1140.261719 257.578125 C 1136.191406 256.128906 1132.738281 255.109375 1132.539062 255.839844 C 1132.539062 300.800781 1137.921875 321.511719 1126.878906 344.480469 C 1125.878906 372.371094 1125.140625 397.089844 1124.5 401.921875 C 1123.449219 409.988281 1114.5 421.53125 1102.570312 432.878906 C 1062.371094 471.140625 995.402344 460.128906 946.480469 434.53125 Z M 1161.109375 441.75 C 1160.910156 442.199219 1160.699219 442.628906 1160.480469 443.039062 C 1156.941406 446.019531 1153.378906 448.800781 1149.808594 451.398438 C 1132.421875 457.421875 1124.199219 465.039062 1113.609375 471.828125 C 1035.910156 503.898438 960.695312 465.171875 936.039062 450.109375 C 935.066406 448.578125 933.722656 445.808594 932.457031 442.691406 C 933.878906 442.089844 935.230469 441.460938 936.515625 440.828125 C 965.796875 458.941406 1062.609375 508.320312 1155.230469 437.460938 C 1157.128906 438.941406 1159.109375 440.359375 1161.109375 441.75 "/>
<path fill-rule="evenodd" fill="rgb(91.796875%, 93.359375%, 94.53125%)" fill-opacity="1" d="M 960.703125 253.378906 C 967.996094 204.609375 1011.828125 177.128906 1053.46875 176.789062 C 1099.101562 176.410156 1139.679688 211.671875 1144.300781 253.378906 Z M 958.652344 253.378906 L 1147.058594 253.378906 L 1147.058594 262.441406 L 958.652344 262.441406 L 958.652344 253.378906 "/>
<path fill-rule="evenodd" fill="rgb(1.179504%, 45.872498%, 53.709412%)" fill-opacity="1" d="M 1048.160156 258.070312 L 1048.160156 176.789062 L 1057.550781 176.789062 L 1057.550781 258.070312 L 1048.160156 258.070312 "/>
<path fill-rule="evenodd" fill="rgb(1.179504%, 45.872498%, 53.709412%)" fill-opacity="1" d="M 936.660156 440.921875 C 933.945312 442.269531 930.9375 443.539062 927.609375 444.78125 C 927.609375 444.78125 1052.210938 535.488281 1161.621094 442.261719 C 1159.398438 440.730469 1157.21875 439.171875 1155.128906 437.539062 C 1062.691406 508.160156 966.097656 459.101562 936.660156 440.921875 "/>
<path fill-rule="evenodd" fill="rgb(0%, 45.483398%, 53.318787%)" fill-opacity="1" d="M 1046.75 861.421875 L 1046.75 475.53125 L 1056.128906 475.53125 L 1056.128906 861.421875 L 1046.75 861.421875 "/>
<path fill-rule="evenodd" fill="rgb(0%, 45.483398%, 53.318787%)" fill-opacity="1" d="M 888.960938 856.140625 L 1224.121094 856.140625 L 1224.75 860.351562 L 1226.851562 865.359375 L 887.332031 865.53125 L 888.960938 856.140625 "/>
<path fill-rule="evenodd" fill="rgb(1.179504%, 45.872498%, 53.709412%)" fill-opacity="1" d="M 958.652344 253.378906 L 1147.058594 253.378906 L 1147.058594 262.761719 L 958.652344 262.761719 L 958.652344 253.378906 "/>
</svg>
