<?xml version="1.0" encoding="UTF-8"?>
<svg xmlns="http://www.w3.org/2000/svg" xmlns:xlink="http://www.w3.org/1999/xlink" width="4000" height="3000" viewBox="0 0 4000 3000">
<defs>
<clipPath id="clip-0">
<path clip-rule="nonzero" d="M 1214.53125 1456.339844 L 1687.21875 1456.339844 L 1687.21875 1475.308594 L 1214.53125 1475.308594 Z M 1214.53125 1456.339844 "/>
</clipPath>
<linearGradient id="linear-pattern-0" gradientUnits="userSpaceOnUse" x1="0.138321" y1="0" x2="0.223431" y2="0" gradientTransform="matrix(0, 222.888, -222.888, 0, 1450.88, 1425.51)">
<stop offset="0" stop-color="rgb(88.066101%, 87.849426%, 87.902832%)" stop-opacity="1"/>
<stop offset="0.03125" stop-color="rgb(87.950134%, 87.731934%, 87.786865%)" stop-opacity="1"/>
<stop offset="0.0625" stop-color="rgb(87.721252%, 87.496948%, 87.553406%)" stop-opacity="1"/>
<stop offset="0.09375" stop-color="rgb(87.492371%, 87.263489%, 87.321472%)" stop-opacity="1"/>
<stop offset="0.125" stop-color="rgb(87.261963%, 87.030029%, 87.088013%)" stop-opacity="1"/>
<stop offset="0.15625" stop-color="rgb(87.033081%, 86.79657%, 86.856079%)" stop-opacity="1"/>
<stop offset="0.1875" stop-color="rgb(86.802673%, 86.56311%, 86.62262%)" stop-opacity="1"/>
<stop offset="0.21875" stop-color="rgb(86.573792%, 86.329651%, 86.390686%)" stop-opacity="1"/>
<stop offset="0.25" stop-color="rgb(86.34491%, 86.096191%, 86.158752%)" stop-opacity="1"/>
<stop offset="0.28125" stop-color="rgb(86.114502%, 85.862732%, 85.925293%)" stop-opacity="1"/>
<stop offset="0.3125" stop-color="rgb(85.88562%, 85.629272%, 85.693359%)" stop-opacity="1"/>
<stop offset="0.34375" stop-color="rgb(85.656738%, 85.394287%, 85.4599%)" stop-opacity="1"/>
<stop offset="0.375" stop-color="rgb(85.426331%, 85.160828%, 85.227966%)" stop-opacity="1"/>
<stop offset="0.40625" stop-color="rgb(85.197449%, 84.927368%, 84.994507%)" stop-opacity="1"/>
<stop offset="0.4375" stop-color="rgb(84.967041%, 84.693909%, 84.762573%)" stop-opacity="1"/>
<stop offset="0.46875" stop-color="rgb(84.738159%, 84.460449%, 84.53064%)" stop-opacity="1"/>
<stop offset="0.5" stop-color="rgb(84.509277%, 84.22699%, 84.29718%)" stop-opacity="1"/>
<stop offset="0.53125" stop-color="rgb(84.27887%, 83.99353%, 84.065247%)" stop-opacity="1"/>
<stop offset="0.5625" stop-color="rgb(84.049988%, 83.760071%, 83.831787%)" stop-opacity="1"/>
<stop offset="0.59375" stop-color="rgb(83.81958%, 83.525085%, 83.599854%)" stop-opacity="1"/>
<stop offset="0.625" stop-color="rgb(83.590698%, 83.291626%, 83.366394%)" stop-opacity="1"/>
<stop offset="0.65625" stop-color="rgb(83.361816%, 83.058167%, 83.13446%)" stop-opacity="1"/>
<stop offset="0.6875" stop-color="rgb(83.131409%, 82.824707%, 82.902527%)" stop-opacity="1"/>
<stop offset="0.71875" stop-color="rgb(82.902527%, 82.591248%, 82.669067%)" stop-opacity="1"/>
<stop offset="0.75" stop-color="rgb(82.673645%, 82.357788%, 82.437134%)" stop-opacity="1"/>
<stop offset="0.78125" stop-color="rgb(82.443237%, 82.124329%, 82.203674%)" stop-opacity="1"/>
<stop offset="0.8125" stop-color="rgb(82.214355%, 81.890869%, 81.971741%)" stop-opacity="1"/>
<stop offset="0.84375" stop-color="rgb(81.983948%, 81.65741%, 81.738281%)" stop-opacity="1"/>
<stop offset="0.875" stop-color="rgb(81.755066%, 81.422424%, 81.506348%)" stop-opacity="1"/>
<stop offset="0.90625" stop-color="rgb(81.526184%, 81.188965%, 81.274414%)" stop-opacity="1"/>
<stop offset="0.9375" stop-color="rgb(81.295776%, 80.955505%, 81.040955%)" stop-opacity="1"/>
<stop offset="0.96875" stop-color="rgb(81.066895%, 80.722046%, 80.809021%)" stop-opacity="1"/>
<stop offset="1" stop-color="rgb(80.838013%, 80.488586%, 80.575562%)" stop-opacity="1"/>
</linearGradient>
</defs>
<rect x="-400" y="-300" width="4800" height="3600" fill="rgb(32.93457%, 55.664062%, 65.039062%)" fill-opacity="1"/>
<path fill-rule="nonzero" fill="rgb(66.601562%, 82.8125%, 87.889099%)" fill-opacity="1" d="M 2361.949219 1035.460938 C 2361.949219 1056.191406 2345.140625 1073 2324.398438 1073 C 2303.671875 1073 2286.859375 1056.191406 2286.859375 1035.460938 C 2286.859375 1014.730469 2303.671875 997.921875 2324.398438 997.921875 C 2345.140625 997.921875 2361.949219 1014.730469 2361.949219 1035.460938 "/>
<path fill-rule="nonzero" fill="rgb(66.601562%, 82.8125%, 87.889099%)" fill-opacity="1" d="M 2522.679688 860.390625 C 2522.679688 904.78125 2486.699219 940.761719 2442.308594 940.761719 C 2397.929688 940.761719 2361.949219 904.78125 2361.949219 860.390625 C 2361.949219 816.011719 2397.929688 780.019531 2442.308594 780.019531 C 2486.699219 780.019531 2522.679688 816.011719 2522.679688 860.390625 "/>
<path fill-rule="nonzero" fill="rgb(66.601562%, 82.8125%, 87.889099%)" fill-opacity="1" d="M 2893.871094 1168.519531 C 2893.871094 1201.628906 2867.039062 1228.46875 2833.929688 1228.46875 C 2800.820312 1228.46875 2773.980469 1201.628906 2773.980469 1168.519531 C 2773.980469 1135.410156 2800.820312 1108.570312 2833.929688 1108.570312 C 2867.039062 1108.570312 2893.871094 1135.410156 2893.871094 1168.519531 "/>
<path fill-rule="nonzero" fill="rgb(66.601562%, 82.8125%, 87.889099%)" fill-opacity="1" d="M 3344.039062 1612.660156 C 3344.039062 1657.089844 3308.03125 1693.101562 3263.601562 1693.101562 C 3219.171875 1693.101562 3183.148438 1657.089844 3183.148438 1612.660156 C 3183.148438 1568.230469 3219.171875 1532.21875 3263.601562 1532.21875 C 3308.03125 1532.21875 3344.039062 1568.230469 3344.039062 1612.660156 "/>
<path fill-rule="nonzero" fill="rgb(66.601562%, 82.8125%, 87.889099%)" fill-opacity="1" d="M 3037.179688 1597.058594 C 3037.179688 1618.300781 3019.960938 1635.511719 2998.71875 1635.511719 C 2977.480469 1635.511719 2960.269531 1618.300781 2960.269531 1597.058594 C 2960.269531 1575.820312 2977.480469 1558.601562 2998.71875 1558.601562 C 3019.960938 1558.601562 3037.179688 1575.820312 3037.179688 1597.058594 "/>
<path fill-rule="nonzero" fill="rgb(66.601562%, 82.8125%, 87.889099%)" fill-opacity="1" d="M 2773.980469 2001.039062 C 2773.980469 2026.859375 2753.050781 2047.789062 2727.230469 2047.789062 C 2701.398438 2047.789062 2680.46875 2026.859375 2680.46875 2001.039062 C 2680.46875 1975.210938 2701.398438 1954.28125 2727.230469 1954.28125 C 2753.050781 1954.28125 2773.980469 1975.210938 2773.980469 2001.039062 "/>
<path fill-rule="nonzero" fill="rgb(66.601562%, 82.8125%, 87.889099%)" fill-opacity="1" d="M 3183.148438 2074.03125 C 3183.148438 2114.339844 3150.480469 2147.019531 3110.171875 2147.019531 C 3069.851562 2147.019531 3037.179688 2114.339844 3037.179688 2074.03125 C 3037.179688 2033.71875 3069.851562 2001.039062 3110.171875 2001.039062 C 3150.480469 2001.039062 3183.148438 2033.71875 3183.148438 2074.03125 "/>
<path fill-rule="nonzero" fill="rgb(66.601562%, 82.8125%, 87.889099%)" fill-opacity="1" d="M 2397.390625 2108.589844 C 2397.390625 2148.898438 2364.710938 2181.578125 2324.398438 2181.578125 C 2284.089844 2181.578125 2251.410156 2148.898438 2251.410156 2108.589844 C 2251.410156 2068.28125 2284.089844 2035.601562 2324.398438 2035.601562 C 2364.710938 2035.601562 2397.390625 2068.28125 2397.390625 2108.589844 "/>
<path fill-rule="nonzero" fill="rgb(19.993591%, 19.993591%, 19.993591%)" fill-opacity="1" d="M 696.472656 836.960938 L 671.945312 836.960938 L 671.945312 831.398438 C 671.945312 829.800781 673.238281 828.511719 674.835938 828.511719 L 693.582031 828.511719 C 695.179688 828.511719 696.472656 829.800781 696.472656 831.398438 L 696.472656 836.960938 "/>
<path fill-rule="nonzero" fill="rgb(86.71875%, 91.014099%, 92.96875%)" fill-opacity="1" d="M 808.945312 974.410156 L 808.945312 1405.949219 C 808.945312 1425.601562 793.019531 1441.519531 773.378906 1441.519531 L 506.1875 1441.519531 C 486.546875 1441.519531 470.621094 1425.601562 470.621094 1405.949219 L 470.621094 974.410156 C 470.621094 954.761719 486.546875 938.839844 506.1875 938.839844 L 773.378906 938.839844 C 793.019531 938.839844 808.945312 954.761719 808.945312 974.410156 "/>
<path fill-rule="nonzero" fill="rgb(59.959412%, 59.959412%, 59.959412%)" fill-opacity="1" d="M 808.945312 974.410156 L 805.945312 974.410156 L 805.945312 1405.949219 C 805.941406 1414.960938 802.304688 1423.078125 796.40625 1428.980469 C 790.503906 1434.878906 782.378906 1438.519531 773.378906 1438.519531 L 506.1875 1438.519531 C 497.183594 1438.519531 489.0625 1434.878906 483.160156 1428.980469 C 477.261719 1423.078125 473.621094 1414.960938 473.621094 1405.949219 L 473.621094 974.410156 C 473.621094 965.398438 477.261719 957.28125 483.160156 951.378906 C 489.0625 945.480469 497.183594 941.839844 506.1875 941.839844 L 773.378906 941.839844 C 782.378906 941.839844 790.503906 945.480469 796.40625 951.378906 C 802.304688 957.28125 805.941406 965.398438 805.945312 974.410156 L 811.945312 974.410156 C 811.945312 963.769531 807.621094 954.109375 800.648438 947.140625 C 793.675781 940.160156 784.015625 935.839844 773.378906 935.839844 L 506.1875 935.839844 C 495.546875 935.839844 485.886719 940.160156 478.917969 947.140625 C 471.941406 954.109375 467.617188 963.769531 467.621094 974.410156 L 467.621094 1405.949219 C 467.617188 1416.589844 471.941406 1426.261719 478.917969 1433.21875 C 485.886719 1440.199219 495.546875 1444.519531 506.1875 1444.519531 L 773.378906 1444.519531 C 784.015625 1444.519531 793.675781 1440.199219 800.648438 1433.21875 C 807.621094 1426.261719 811.945312 1416.589844 811.945312 1405.949219 L 811.945312 974.410156 L 808.945312 974.410156 "/>
<path fill-rule="nonzero" fill="rgb(15.696716%, 56.443787%, 69.334412%)" fill-opacity="1" d="M 808.945312 1122.839844 L 808.945312 1405.949219 C 808.945312 1425.601562 793.019531 1441.519531 773.378906 1441.519531 L 506.1875 1441.519531 C 486.546875 1441.519531 470.621094 1425.601562 470.621094 1405.949219 L 470.621094 1108.570312 C 491.109375 1111.738281 465.816406 1224.371094 598.601562 1190.179688 C 731.386719 1156 808.945312 1122.839844 808.945312 1122.839844 "/>
<path fill-rule="nonzero" fill="rgb(55.271912%, 75.78125%, 82.421875%)" fill-opacity="1" d="M 526.082031 1421.171875 C 520.296875 1421.171875 515.605469 1416.480469 515.605469 1410.691406 C 515.605469 1404.910156 520.296875 1400.21875 526.082031 1400.21875 C 531.863281 1400.21875 536.554688 1404.910156 536.554688 1410.691406 C 536.554688 1416.480469 531.863281 1421.171875 526.082031 1421.171875 "/>
<path fill-rule="nonzero" fill="rgb(55.271912%, 75.78125%, 82.421875%)" fill-opacity="1" d="M 492.929688 1356.160156 C 487.992188 1356.160156 483.988281 1352.160156 483.988281 1347.21875 C 483.988281 1342.28125 487.992188 1338.28125 492.929688 1338.28125 C 497.867188 1338.28125 501.867188 1342.28125 501.867188 1347.21875 C 501.867188 1352.160156 497.867188 1356.160156 492.929688 1356.160156 "/>
<path fill-rule="nonzero" fill="rgb(55.271912%, 75.78125%, 82.421875%)" fill-opacity="1" d="M 491.378906 1229.648438 C 485.417969 1229.648438 480.585938 1224.820312 480.585938 1218.859375 C 480.585938 1212.898438 485.417969 1208.070312 491.378906 1208.070312 C 497.339844 1208.070312 502.171875 1212.898438 502.171875 1218.859375 C 502.171875 1224.820312 497.339844 1229.648438 491.378906 1229.648438 "/>
<path fill-rule="nonzero" fill="rgb(55.271912%, 75.78125%, 82.421875%)" fill-opacity="1" d="M 562.652344 1396.160156 C 561.046875 1396.160156 559.460938 1395.449219 558.394531 1394.078125 C 556.5625 1391.730469 556.980469 1388.339844 559.328125 1386.511719 C 560.316406 1385.738281 561.484375 1385.371094 562.644531 1385.371094 C 564.25 1385.371094 565.839844 1386.078125 566.902344 1387.441406 C 568.734375 1389.789062 568.320312 1393.179688 565.96875 1395.019531 C 564.984375 1395.789062 563.8125 1396.160156 562.652344 1396.160156 "/>
<path fill-rule="nonzero" fill="rgb(55.271912%, 75.78125%, 82.421875%)" fill-opacity="1" d="M 578.691406 1422.179688 C 577.59375 1422.179688 576.507812 1421.691406 575.78125 1420.761719 C 574.53125 1419.160156 574.816406 1416.839844 576.421875 1415.589844 C 577.09375 1415.070312 577.890625 1414.808594 578.683594 1414.808594 C 579.78125 1414.808594 580.863281 1415.300781 581.589844 1416.230469 C 582.84375 1417.828125 582.558594 1420.148438 580.953125 1421.398438 C 580.28125 1421.921875 579.480469 1422.179688 578.691406 1422.179688 "/>
<path fill-rule="nonzero" fill="rgb(3.921509%, 33.325195%, 39.988708%)" fill-opacity="1" d="M 759.835938 940.761719 L 614.40625 940.761719 L 614.40625 934.691406 L 759.835938 934.691406 L 759.835938 940.761719 "/>
<path fill-rule="nonzero" fill="rgb(16.479492%, 57.226562%, 70.117188%)" fill-opacity="1" d="M 759.835938 934.839844 L 614.40625 934.839844 C 614.40625 925.148438 622.261719 917.300781 631.953125 917.300781 L 759.835938 917.300781 L 759.835938 934.839844 "/>
<path fill-rule="nonzero" fill="rgb(19.993591%, 19.993591%, 19.993591%)" fill-opacity="1" d="M 765.367188 917.300781 L 644.441406 917.300781 L 644.441406 900.699219 L 765.367188 900.699219 L 765.367188 917.300781 "/>
<path fill-rule="nonzero" fill="rgb(18.041992%, 27.830505%, 38.035583%)" fill-opacity="1" d="M 815.394531 900.699219 L 614.40625 900.699219 L 614.40625 885.449219 C 614.40625 862.808594 632.761719 844.449219 655.402344 844.449219 L 815.394531 844.449219 L 815.394531 900.699219 "/>
<path fill-rule="nonzero" fill="rgb(19.993591%, 19.993591%, 19.993591%)" fill-opacity="1" d="M 704.902344 844.449219 L 660.644531 844.449219 L 660.644531 834.308594 L 704.902344 834.308594 L 704.902344 844.449219 "/>
<g clip-path="url(#clip-0)">
<path fill-rule="nonzero" fill="url(#linear-pattern-0)" d="M 1687.21875 1456.339844 L 1214.53125 1456.339844 L 1214.53125 1475.308594 L 1687.21875 1475.308594 Z M 1687.21875 1456.339844 "/>
</g>
<path fill-rule="nonzero" fill="rgb(19.993591%, 19.993591%, 19.993591%)" fill-opacity="1" d="M 1608.710938 1475.210938 L 1567.910156 1481.03125 L 1531.78125 1479 L 1531.78125 1452.640625 L 1567.871094 1450.609375 L 1608.710938 1456.429688 L 1608.710938 1475.210938 "/>
<path fill-rule="nonzero" fill="rgb(19.993591%, 19.993591%, 19.993591%)" fill-opacity="1" d="M 1755.191406 1475.210938 L 1746.949219 1476.390625 L 1714.398438 1481.03125 L 1678.261719 1479 L 1678.261719 1452.640625 L 1714.351562 1450.609375 L 1746.289062 1455.171875 L 1755.191406 1456.429688 L 1755.191406 1475.210938 "/>
<path fill-rule="nonzero" fill="rgb(29.80957%, 34.910583%, 34.104919%)" fill-opacity="1" d="M 1340.230469 2534.960938 C 1340.230469 2534.960938 1342.398438 2549.699219 1331.570312 2561.25 C 1320.738281 2572.800781 1306.128906 2581.328125 1286.808594 2589.410156 C 1259.199219 2600.960938 1211.011719 2603.851562 1189.351562 2600.238281 C 1167.691406 2596.628906 1104.878906 2591.011719 1104.878906 2591.011719 L 1104.878906 2606.011719 C 1104.878906 2606.011719 1000.75 2608.179688 1000.199219 2598.070312 C 999.644531 2587.960938 996.734375 2563.578125 996.734375 2563.578125 L 1330.898438 2518.519531 L 1340.230469 2534.960938 "/>
<path fill-rule="nonzero" fill="rgb(25.87738%, 12.939453%, 4.315186%)" fill-opacity="1" d="M 1198.738281 2494.851562 C 1198.738281 2494.851562 1230.5 2493.390625 1247.101562 2491.21875 C 1263.710938 2489.058594 1292.589844 2481.121094 1305.578125 2491.21875 C 1318.578125 2501.328125 1335.179688 2519.378906 1334.460938 2529.488281 C 1333.738281 2539.589844 1320.019531 2567.03125 1295.46875 2572.800781 C 1270.929688 2578.578125 1241.328125 2589.410156 1195.121094 2580.019531 C 1148.921875 2570.640625 1114.988281 2569.191406 1101.269531 2574.25 C 1087.550781 2579.300781 1038.460938 2583.628906 1021.128906 2576.410156 C 1003.808594 2569.191406 991.769531 2570.019531 998.148438 2553.71875 C 1004.53125 2537.429688 1198.738281 2494.851562 1198.738281 2494.851562 "/>
<path fill-rule="nonzero" fill="rgb(29.80957%, 34.910583%, 34.104919%)" fill-opacity="1" d="M 648.425781 2443.480469 C 648.425781 2443.480469 670.265625 2548.980469 751.121094 2548.980469 C 831.980469 2548.980469 817.027344 2534.539062 815.480469 2502.769531 C 813.933594 2471.011719 648.425781 2443.480469 648.425781 2443.480469 "/>
<path fill-rule="nonzero" fill="rgb(25.87738%, 12.939453%, 4.315186%)" fill-opacity="1" d="M 639.78125 2410.828125 C 639.78125 2410.828125 648.425781 2443.480469 660.339844 2465.679688 C 672.25 2487.878906 704.738281 2533.640625 741.828125 2532.828125 C 778.917969 2532.011719 819.257812 2540.128906 815.195312 2494.378906 C 811.136719 2448.628906 757.261719 2419.121094 757.261719 2419.121094 L 639.78125 2410.828125 "/>
<path fill-rule="nonzero" fill="rgb(94.921875%, 94.921875%, 94.921875%)" fill-opacity="1" d="M 1126.539062 692.121094 C 1126.539062 692.121094 1082.140625 552.421875 1036.648438 558.921875 C 991.171875 565.421875 883.960938 617.398438 870.964844 705.121094 C 857.972656 792.828125 835.230469 812.328125 818.988281 844.808594 C 802.742188 877.300781 800.214844 870.441406 774.945312 885.601562 C 749.679688 900.769531 707.085938 916.648438 694.089844 934.699219 C 681.09375 952.75 504.214844 1236.46875 504.9375 1265.351562 C 505.660156 1294.230469 499.882812 1344.761719 579.300781 1388.078125 C 579.300781 1388.078125 619.007812 1445.121094 650.773438 1445.839844 C 682.539062 1446.558594 697.699219 1458.828125 697.699219 1458.828125 C 697.699219 1458.828125 704.195312 1489.148438 699.863281 1512.980469 C 695.53125 1536.800781 665.210938 1625.601562 669.542969 1673.25 C 673.875 1720.898438 704.195312 1757.71875 697.699219 1781.550781 C 691.199219 1805.371094 645.71875 2050.109375 650.050781 2071.769531 C 654.382812 2093.429688 669.542969 2164.898438 656.546875 2186.558594 C 643.550781 2208.21875 604.566406 2277.519531 604.566406 2301.351562 C 604.566406 2325.171875 593.738281 2374.988281 626.226562 2400.980469 C 658.714844 2426.96875 691.199219 2435.628906 725.855469 2435.628906 C 760.507812 2435.628906 769.171875 2455.121094 777.835938 2405.308594 C 786.5 2355.5 773.503906 2349 795.160156 2327.339844 C 816.820312 2305.679688 810.324219 2329.511719 836.3125 2268.859375 C 862.304688 2208.21875 903.453125 2108.589844 903.453125 2108.589844 C 903.453125 2108.589844 935.941406 2236.371094 942.441406 2297.019531 C 948.9375 2357.660156 953.269531 2391.171875 972.761719 2439.390625 C 992.253906 2487.609375 955.433594 2539.589844 977.09375 2546.089844 C 998.753906 2552.589844 1046.398438 2576.410156 1068.058594 2567.75 C 1089.71875 2559.089844 1159.019531 2533.101562 1182.851562 2509.269531 C 1206.671875 2485.449219 1224 2481.109375 1208.839844 2463.789062 C 1193.679688 2446.460938 1195.839844 2444.300781 1182.851562 2444.300781 C 1169.851562 2444.300781 1176.351562 2446.460938 1180.679688 2416.140625 C 1185.019531 2385.820312 1195.839844 2147.570312 1187.179688 2108.589844 C 1178.519531 2069.601562 1156.859375 2045.78125 1156.859375 2019.789062 C 1156.859375 1993.800781 1163.359375 1950.480469 1154.691406 1892 C 1146.03125 1833.53125 1143.859375 1707.910156 1143.859375 1707.910156 C 1143.859375 1707.910156 1169.851562 1629.941406 1169.851562 1595.28125 C 1169.851562 1560.628906 1130.871094 1486.988281 1130.871094 1456.671875 C 1130.871094 1426.351562 1159.019531 1409.019531 1148.199219 1328.878906 C 1137.371094 1248.75 1111.378906 1220.589844 1115.710938 1194.601562 C 1120.039062 1168.609375 1141.699219 1146.949219 1126.539062 1112.300781 C 1111.378906 1077.640625 1061.558594 956.359375 1042.070312 947.691406 C 1022.578125 939.03125 1104.878906 891.378906 1113.539062 858.890625 C 1122.199219 826.410156 1113.539062 802.578125 1117.871094 780.921875 C 1120.351562 768.550781 1122.820312 741.351562 1124.488281 720.289062 C 1125.738281 704.46875 1126.539062 692.121094 1126.539062 692.121094 "/>
<path fill-rule="nonzero" fill="rgb(77.734375%, 61.131287%, 42.747498%)" fill-opacity="1" d="M 1021.128906 769.371094 C 986.480469 786.699219 961.933594 828.570312 966.265625 858.890625 C 970.597656 889.210938 974.929688 917.371094 981.425781 934.699219 C 987.921875 952.019531 996.585938 908.710938 1009.578125 919.539062 C 1022.578125 930.371094 1071.671875 931.089844 1086.828125 910.148438 C 1101.988281 889.210938 1124.210938 853.910156 1117.429688 818.5 C 1110.648438 783.089844 1104.160156 770.808594 1106.320312 768.648438 C 1108.488281 766.480469 1126 741.210938 1118.691406 721.71875 C 1111.378906 702.230469 1021.128906 769.371094 1021.128906 769.371094 "/>
<path fill-rule="nonzero" fill="rgb(16.088867%, 66.992188%, 88.671875%)" fill-opacity="1" d="M 970.425781 998.238281 L 1047.121094 1591.570312 L 1052.078125 1590.929688 L 975.386719 997.601562 "/>
<path fill-rule="nonzero" fill="rgb(19.993591%, 19.993591%, 19.993591%)" fill-opacity="1" d="M 824.996094 1441.519531 L 1120.378906 1441.519531 L 1120.378906 1489.539062 L 824.996094 1489.539062 C 816.128906 1489.539062 808.945312 1482.351562 808.945312 1473.480469 L 808.945312 1457.570312 C 808.945312 1448.710938 816.128906 1441.519531 824.996094 1441.519531 "/>
<path fill-rule="nonzero" fill="rgb(41.575623%, 61.914062%, 60.351562%)" fill-opacity="1" d="M 896.957031 1345.128906 C 896.957031 1345.128906 844.003906 1327.980469 839.820312 1331.839844 C 823.121094 1347.238281 770.503906 1404.058594 779.59375 1414.449219 C 790.96875 1427.441406 824.648438 1459.5 855.734375 1484.269531 C 875.824219 1500.269531 866.191406 1503.289062 888.933594 1506.539062 C 911.675781 1509.789062 915.9375 1500.601562 915.9375 1500.601562 C 915.9375 1500.601562 930.519531 1502.300781 938.464844 1503.570312 C 946.40625 1504.828125 957.601562 1503.589844 960.488281 1497.640625 C 962.496094 1493.488281 967.308594 1494.160156 972.605469 1494.820312 C 974.914062 1495.109375 977.316406 1495.398438 979.621094 1495.289062 C 987.199219 1494.929688 994.421875 1494.570312 995.144531 1487.351562 C 995.863281 1480.128906 1005.96875 1482.300781 1019.328125 1493.851562 C 1032.679688 1505.398438 1047.941406 1505.898438 1047.941406 1505.898438 C 1047.941406 1505.898438 1076.96875 1510.988281 1074.449219 1491.859375 C 1073.089844 1481.589844 1067.609375 1481.980469 1060.75 1482.371094 C 1054.839844 1482.710938 1047.898438 1483.039062 1041.710938 1476.519531 C 1028.351562 1462.441406 1018.25 1445.121094 1018.25 1445.121094 L 993.699219 1422.738281 C 993.699219 1422.738281 1030.421875 1431.648438 1063.339844 1415.640625 C 1077.789062 1403.628906 1001.039062 1387.960938 994.183594 1383.621094 C 987.328125 1379.289062 920.058594 1335.378906 896.957031 1345.128906 "/>
<path fill-rule="nonzero" fill="rgb(80.076599%, 80.076599%, 80.076599%)" fill-opacity="1" d="M 1112.820312 797.238281 C 1112.820312 797.238281 1039.179688 824.238281 1033.410156 835.070312 C 1027.628906 845.898438 997.765625 914.621094 1001.738281 918.949219 C 1005.710938 923.28125 1050.011719 946.96875 1086.828125 910.148438 C 1123.648438 873.328125 1126.539062 830.160156 1112.820312 797.238281 "/>
<path fill-rule="nonzero" fill="rgb(90.234375%, 90.234375%, 90.234375%)" fill-opacity="1" d="M 992.550781 791.308594 L 1033.410156 835.070312 L 1029.070312 844.449219 L 987.464844 797.238281 L 992.550781 791.308594 "/>
<path fill-rule="nonzero" fill="rgb(94.921875%, 94.921875%, 94.921875%)" fill-opacity="1" d="M 1051.820312 751.679688 L 1094.050781 747.960938 L 1125.78125 747.960938 L 1116.691406 791.308594 C 1116.691406 791.308594 1078.890625 817.019531 1055.058594 811.238281 C 1031.238281 805.46875 1042.480469 757.710938 1051.820312 751.679688 "/>
<path fill-rule="nonzero" fill="rgb(90.234375%, 90.234375%, 90.234375%)" fill-opacity="1" d="M 1000.371094 783.601562 L 1041.28125 778.699219 L 1043.121094 768.898438 L 1014.941406 772.789062 L 1000.371094 783.601562 "/>
<path fill-rule="nonzero" fill="rgb(16.088867%, 66.992188%, 88.671875%)" fill-opacity="1" d="M 972.90625 997.921875 C 970.097656 997.921875 967.367188 997.320312 964.746094 996.03125 C 936.195312 981.929688 774.140625 887.96875 772.519531 887.03125 L 778.355469 883.609375 C 779.976562 884.550781 938.375 977.871094 966.789062 991.898438 C 988.820312 1002.78125 1026.800781 966.628906 1039.371094 944.570312 L 1043.121094 948.25 C 1041.351562 951.351562 1002.710938 997.921875 972.90625 997.921875 "/>
<path fill-rule="nonzero" fill="rgb(16.088867%, 66.992188%, 88.671875%)" fill-opacity="1" d="M 698.253906 1514.890625 C 698.359375 1514.980469 725.527344 1537.898438 771.195312 1560.839844 C 816.859375 1583.769531 881.042969 1606.71875 955.15625 1606.730469 C 1017.578125 1606.738281 1087.03125 1590.398438 1158.121094 1544.128906 L 1155.398438 1539.941406 C 1085.101562 1585.679688 1016.710938 1601.71875 955.15625 1601.730469 C 882.089844 1601.730469 818.625 1579.058594 773.4375 1556.371094 C 750.847656 1545.019531 732.828125 1533.679688 720.472656 1525.179688 C 714.296875 1520.929688 709.53125 1517.390625 706.320312 1514.921875 C 704.714844 1513.679688 703.496094 1512.71875 702.683594 1512.058594 C 702.277344 1511.730469 701.972656 1511.480469 701.769531 1511.308594 C 701.671875 1511.230469 701.59375 1511.171875 701.546875 1511.128906 L 701.476562 1511.070312 L 698.253906 1514.890625 "/>
<path fill-rule="nonzero" fill="rgb(90.234375%, 90.234375%, 90.234375%)" fill-opacity="1" d="M 904.988281 2104.980469 C 908.265625 2093.480469 919.007812 2056.929688 934.46875 2015.769531 C 950.984375 1971.769531 972.910156 1922.488281 996.804688 1892.949219 C 1040.988281 1838.28125 1056.980469 1762.511719 1060.550781 1742.691406 C 1060.621094 1745.910156 1060.679688 1751 1060.679688 1758.789062 C 1060.679688 1767.21875 1060.609375 1778.808594 1060.378906 1794.621094 C 1060.300781 1800.421875 1057.789062 1809.761719 1053.441406 1821.558594 C 1038.238281 1862.890625 1000.621094 1934.609375 966.820312 1995.960938 C 949.921875 2026.640625 933.972656 2054.738281 922.246094 2075.160156 C 916.382812 2085.371094 911.578125 2093.671875 908.238281 2099.410156 C 906.917969 2101.679688 905.828125 2103.550781 904.988281 2104.980469 "/>
<path fill-rule="nonzero" fill="rgb(29.80957%, 50.193787%, 58.789062%)" fill-opacity="1" d="M 902.082031 2111.910156 C 902.972656 2109.75 903.453125 2108.589844 903.453125 2108.589844 C 903.453125 2108.589844 903.515625 2108.820312 903.628906 2109.28125 L 902.082031 2111.910156 "/>
<path fill-rule="nonzero" fill="rgb(85.546875%, 85.546875%, 85.546875%)" fill-opacity="1" d="M 901.976562 2112.089844 L 902.972656 2108.460938 C 902.976562 2108.449219 913.4375 2070.261719 930.296875 2024.148438 C 947.160156 1978.039062 970.394531 1924.03125 996.027344 1892.320312 C 1043.851562 1833.179688 1058.578125 1748.949219 1060.21875 1738.679688 C 1060.328125 1738 1060.378906 1737.648438 1060.378906 1737.640625 L 1061.039062 1733.121094 L 1061.378906 1737.679688 C 1061.378906 1737.699219 1061.679688 1741.929688 1061.679688 1758.789062 C 1061.679688 1767.230469 1061.609375 1778.820312 1061.378906 1794.628906 C 1061.28125 1800.679688 1058.738281 1810.050781 1054.378906 1821.898438 C 1050.019531 1833.75 1043.839844 1848.058594 1036.441406 1863.898438 C 1021.640625 1895.570312 1001.980469 1933.339844 982.34375 1969.628906 C 943.070312 2042.199219 903.886719 2108.839844 903.886719 2108.839844 L 903.628906 2109.28125 C 903.515625 2108.820312 903.453125 2108.589844 903.453125 2108.589844 C 903.453125 2108.589844 902.972656 2109.75 902.082031 2111.910156 L 901.976562 2112.089844 M 903.453125 2108.589844 L 903.9375 2108.71875 L 903.453125 2108.589844 M 1060.550781 1742.691406 C 1056.980469 1762.511719 1040.988281 1838.28125 996.804688 1892.949219 C 972.910156 1922.488281 950.984375 1971.769531 934.46875 2015.769531 C 919.007812 2056.929688 908.265625 2093.480469 904.988281 2104.980469 C 905.828125 2103.550781 906.917969 2101.679688 908.238281 2099.410156 C 911.578125 2093.671875 916.382812 2085.371094 922.246094 2075.160156 C 933.972656 2054.738281 949.921875 2026.640625 966.820312 1995.960938 C 1000.621094 1934.609375 1038.238281 1862.890625 1053.441406 1821.558594 C 1057.789062 1809.761719 1060.300781 1800.421875 1060.378906 1794.621094 C 1060.609375 1778.808594 1060.679688 1767.21875 1060.679688 1758.789062 C 1060.679688 1751 1060.621094 1745.910156 1060.550781 1742.691406 "/>
<path fill-rule="nonzero" fill="rgb(90.234375%, 90.234375%, 90.234375%)" fill-opacity="1" d="M 839.820312 1331.839844 C 839.820312 1331.839844 753.511719 1291.941406 748.769531 1284.039062 C 744.027344 1276.128906 750.351562 1265.070312 765.753906 1254 C 781.152344 1242.941406 767.738281 1219.21875 766.160156 1198.671875 C 764.578125 1178.121094 766.160156 1163.898438 797.773438 1154.410156 C 829.390625 1144.929688 797.773438 1102.25 797.773438 1102.25 C 797.773438 1102.25 801.988281 1091.710938 810.421875 1091.710938 C 814.636719 1091.710938 819.90625 1094.339844 826.230469 1102.25 C 845.195312 1125.960938 789.871094 1179.699219 780.386719 1190.769531 C 770.902344 1201.839844 778.804688 1208.160156 780.386719 1239.769531 C 781.96875 1271.390625 759.835938 1276.128906 759.835938 1276.128906 L 839.820312 1331.839844 "/>
<path fill-rule="nonzero" fill="rgb(19.993591%, 19.993591%, 19.993591%)" fill-opacity="1" d="M 1106.289062 1443.429688 L 1093.910156 1443.429688 L 1093.910156 1431.050781 L 1106.289062 1431.050781 L 1106.289062 1443.429688 "/>
<path fill-rule="nonzero" fill="rgb(66.601562%, 82.8125%, 87.889099%)" fill-opacity="1" d="M 2849.179688 1567.511719 C 2850.71875 1559.03125 2851.53125 1550.300781 2851.53125 1541.378906 C 2851.53125 1525.230469 2848.890625 1509.699219 2844.03125 1495.191406 C 2848.890625 1480.679688 2851.53125 1465.148438 2851.53125 1449 C 2851.53125 1432.859375 2848.890625 1417.328125 2844.03125 1402.808594 C 2848.890625 1388.300781 2851.53125 1372.769531 2851.53125 1356.628906 C 2851.53125 1276.359375 2786.460938 1211.28125 2706.191406 1211.28125 C 2701.269531 1211.28125 2696.410156 1211.53125 2691.621094 1212.011719 C 2668.050781 1163.550781 2618.351562 1130.160156 2560.839844 1130.160156 C 2525.71875 1130.160156 2493.5 1142.621094 2468.371094 1163.359375 C 2461.578125 1162.390625 2454.628906 1161.878906 2447.570312 1161.878906 C 2390.46875 1161.878906 2341.070312 1194.808594 2317.300781 1242.710938 C 2292.210938 1211.441406 2253.691406 1191.410156 2210.46875 1191.410156 C 2159.519531 1191.410156 2115.078125 1219.238281 2091.511719 1260.53125 C 2074.191406 1252.609375 2054.929688 1248.191406 2034.640625 1248.191406 C 1968.570312 1248.191406 1913.429688 1295.011719 1900.578125 1357.269531 C 1896.351562 1356.558594 1892.019531 1356.171875 1887.589844 1356.171875 C 1845.46875 1356.171875 1811.25 1389.898438 1810.421875 1431.828125 C 1806.609375 1430.359375 1802.46875 1429.550781 1798.140625 1429.550781 C 1779.21875 1429.550781 1763.890625 1444.878906 1763.890625 1463.800781 C 1763.890625 1482.71875 1779.21875 1498.050781 1798.140625 1498.050781 C 1806.949219 1498.050781 1814.980469 1494.71875 1821.050781 1489.25 C 1820.730469 1492.140625 1820.539062 1495.070312 1820.539062 1498.050781 C 1820.539062 1540.691406 1855.109375 1575.261719 1897.75 1575.261719 C 1900.320312 1575.261719 1902.871094 1575.128906 1905.378906 1574.878906 C 1917.859375 1600.738281 1944.320312 1618.589844 1974.960938 1618.589844 C 1982.390625 1618.589844 1989.570312 1617.511719 1996.371094 1615.550781 C 1996.398438 1682.441406 2044.398438 1738.101562 2107.820312 1750.019531 C 2130.898438 1793.03125 2176.300781 1822.289062 2228.53125 1822.289062 C 2248.140625 1822.289062 2266.78125 1818.160156 2283.640625 1810.730469 C 2306.738281 1860.429688 2357.089844 1894.890625 2415.5 1894.890625 C 2428.871094 1894.890625 2441.808594 1893.078125 2454.109375 1889.699219 C 2466.398438 1893.078125 2479.339844 1894.890625 2492.710938 1894.890625 C 2510.320312 1894.890625 2527.191406 1891.761719 2542.808594 1886.03125 C 2558.429688 1891.761719 2575.308594 1894.890625 2592.910156 1894.890625 C 2653.050781 1894.890625 2704.648438 1858.371094 2726.761719 1806.300781 C 2730.550781 1806.601562 2734.378906 1806.761719 2738.261719 1806.761719 C 2818.53125 1806.761719 2883.601562 1741.679688 2883.601562 1661.410156 C 2883.601562 1625.609375 2870.648438 1592.839844 2849.179688 1567.511719 "/>
<path fill-rule="nonzero" fill="rgb(100%, 0%, 0%)" fill-opacity="1" d="M 1093.910156 1441.519531 L 1093.910156 1431.050781 C 1093.910156 1431.050781 1021.179688 1425.230469 1018.558594 1425.210938 C 1015.929688 1425.179688 1005.289062 1424.539062 1005.289062 1424.539062 L 1005.289062 1429.46875 L 1093.910156 1441.519531 "/>
<path fill-rule="nonzero" fill="rgb(75.78125%, 15.281677%, 17.651367%)" fill-opacity="1" d="M 1748.359375 1455.460938 L 1748.359375 1476.191406 L 1755.191406 1475.210938 L 1755.191406 1456.429688 L 1748.359375 1455.460938 "/>
<path fill-rule="nonzero" fill="rgb(16.479492%, 57.226562%, 70.117188%)" fill-opacity="1" d="M 573.699219 936.019531 L 527.464844 936.019531 L 527.464844 921.328125 L 573.699219 921.328125 L 573.699219 936.019531 "/>
<path fill-rule="nonzero" fill="rgb(5.488586%, 40.380859%, 48.631287%)" fill-opacity="1" d="M 569.089844 921.328125 L 530.625 921.328125 L 530.625 920.660156 C 530.625 913.859375 536.140625 908.339844 542.945312 908.339844 L 556.769531 908.339844 C 563.574219 908.339844 569.089844 913.859375 569.089844 920.660156 L 569.089844 921.328125 "/>
<path fill-rule="nonzero" fill="rgb(90.234375%, 90.234375%, 90.234375%)" fill-opacity="1" d="M 554.894531 908.339844 L 546.269531 908.339844 L 546.269531 833.980469 L 554.894531 833.980469 L 554.894531 908.339844 "/>
<path fill-rule="nonzero" fill="rgb(10.205078%, 10.205078%, 10.205078%)" fill-opacity="1" d="M 568.828125 833.980469 L 532.730469 833.980469 L 532.730469 830.21875 L 568.828125 830.21875 L 568.828125 833.980469 "/>
<path fill-rule="nonzero" fill="rgb(75.78125%, 15.281677%, 17.651367%)" fill-opacity="1" d="M 572.121094 830.21875 L 529.042969 830.21875 L 529.042969 829.359375 C 529.042969 824.398438 533.0625 820.378906 538.023438 820.378906 L 563.140625 820.378906 C 568.101562 820.378906 572.121094 824.398438 572.121094 829.359375 L 572.121094 830.21875 "/>
<path fill-rule="nonzero" fill="rgb(75.78125%, 15.281677%, 17.651367%)" fill-opacity="1" d="M 1120.378906 1489.539062 L 1114.71875 1489.539062 L 1114.71875 1441.519531 L 1120.378906 1441.519531 L 1120.378906 1489.539062 "/>
<path fill-rule="nonzero" fill="rgb(19.993591%, 19.993591%, 19.993591%)" fill-opacity="1" d="M 1120.378906 1431.050781 L 1120.378906 1500.601562 L 1214.53125 1489.539062 L 1214.53125 1441.519531 L 1120.378906 1431.050781 "/>
<path fill-rule="nonzero" fill="rgb(19.993591%, 19.993591%, 19.993591%)" fill-opacity="1" d="M 486.664062 1623.429688 C 465.640625 1623.429688 444.390625 1614.371094 421.371094 1595.839844 C 403.664062 1581.589844 390.6875 1555.929688 382.796875 1519.589844 C 375.664062 1486.71875 372.640625 1445.148438 373.808594 1396.03125 C 375.957031 1305.808594 392.128906 1194.011719 419.351562 1081.230469 C 442.148438 986.78125 471.101562 899.261719 500.878906 834.789062 C 534.632812 761.710938 567.175781 721.460938 597.605469 715.160156 C 634.320312 707.558594 661.125 712.878906 677.273438 730.96875 C 709.566406 767.148438 689.648438 833.609375 688.632812 836.710938 L 675.484375 836.710938 C 675.710938 836.011719 697.070312 769.738281 669.007812 738.328125 C 655.675781 723.410156 632.410156 719.261719 599.847656 726 C 573.800781 731.390625 542.21875 771.671875 510.921875 839.429688 C 481.441406 903.261719 452.742188 990.050781 430.109375 1083.820312 C 403.066406 1195.871094 387 1306.839844 384.871094 1396.289062 C 382.488281 1496.410156 397.511719 1562.429688 428.3125 1587.21875 C 457.21875 1610.488281 482.574219 1617.320312 508.097656 1608.710938 C 532.132812 1600.601562 554.988281 1580.039062 581.449219 1556.21875 C 632.679688 1510.121094 699.632812 1454.519531 809.21875 1456.210938 L 809.21875 1467.289062 C 704.015625 1465.671875 638.644531 1519.640625 588.851562 1564.449219 C 561.476562 1589.078125 537.835938 1610.359375 511.632812 1619.191406 C 503.28125 1622.011719 494.992188 1623.429688 486.664062 1623.429688 "/>
<path fill-rule="nonzero" fill="rgb(56.834412%, 70.896912%, 76.951599%)" fill-opacity="1" d="M 1808.960938 1431.300781 C 1805.558594 1430.171875 1801.921875 1429.550781 1798.140625 1429.550781 C 1797.621094 1429.550781 1797.109375 1429.558594 1796.589844 1429.578125 C 1800.898438 1421.421875 1807.109375 1413.980469 1814.808594 1407.609375 C 1812.25 1414.859375 1810.730469 1422.601562 1810.449219 1430.648438 C 1809.949219 1430.859375 1809.449219 1431.078125 1808.960938 1431.300781 "/>
<path fill-rule="nonzero" fill="rgb(77.734375%, 87.5%, 90.625%)" fill-opacity="1" d="M 2162.640625 1685.25 C 2105.019531 1685.25 2058.308594 1650.140625 2058.308594 1606.839844 C 2058.308594 1605.738281 2058.339844 1604.660156 2058.398438 1603.570312 C 2048.941406 1605.691406 2038.921875 1606.839844 2028.539062 1606.839844 C 1980.621094 1606.839844 1940.238281 1582.550781 1928.011719 1549.460938 C 1933.078125 1551.03125 1938.640625 1551.898438 1944.46875 1551.898438 C 1966.871094 1551.898438 1985.300781 1539.109375 1987.519531 1522.71875 C 1995.128906 1532.058594 2008.828125 1538.300781 2024.46875 1538.300781 C 2048.371094 1538.300781 2067.738281 1523.738281 2067.738281 1505.78125 C 2067.738281 1500.148438 2065.839844 1494.859375 2062.5 1490.25 C 2069.820312 1484.421875 2074.300781 1476.570312 2074.300781 1467.929688 C 2074.300781 1452.878906 2060.710938 1440.230469 2042.261719 1436.511719 C 2042.628906 1434.800781 2042.828125 1433.039062 2042.828125 1431.238281 C 2042.828125 1413.28125 2023.449219 1398.71875 1999.550781 1398.71875 C 1989.089844 1398.71875 1979.488281 1401.511719 1972.011719 1406.148438 C 1964.53125 1401.511719 1954.941406 1398.71875 1944.46875 1398.71875 C 1930.980469 1398.71875 1918.929688 1403.359375 1910.988281 1410.628906 C 1903.441406 1405.800781 1893.648438 1402.878906 1882.949219 1402.878906 C 1862.261719 1402.878906 1844.980469 1413.78125 1840.691406 1428.359375 C 1837.050781 1427.511719 1833.191406 1427.058594 1829.179688 1427.058594 C 1822.398438 1427.058594 1816.019531 1428.359375 1810.449219 1430.648438 C 1810.730469 1422.601562 1812.25 1414.859375 1814.808594 1407.609375 C 1832.148438 1393.261719 1857.03125 1384.269531 1884.679688 1384.269531 C 1894.339844 1384.269531 1903.660156 1385.371094 1912.441406 1387.410156 C 1922.761719 1352.269531 1964.449219 1325.980469 2014.308594 1325.980469 C 2040.101562 1325.980469 2063.710938 1333.019531 2081.921875 1344.679688 C 2101.058594 1327.148438 2130.109375 1315.949219 2162.640625 1315.949219 C 2187.859375 1315.949219 2210.988281 1322.679688 2229.03125 1333.878906 C 2247.070312 1322.679688 2270.199219 1315.949219 2295.421875 1315.949219 C 2353.039062 1315.949219 2399.75 1351.058594 2399.75 1394.371094 C 2399.75 1398.691406 2399.28125 1402.929688 2398.378906 1407.070312 C 2442.871094 1416.03125 2475.628906 1446.539062 2475.628906 1482.800781 C 2475.628906 1503.628906 2464.808594 1522.570312 2447.179688 1536.609375 C 2455.238281 1547.738281 2459.820312 1560.488281 2459.820312 1574.050781 C 2459.820312 1617.359375 2413.109375 1652.460938 2355.488281 1652.460938 C 2317.78125 1652.460938 2284.75 1637.429688 2266.421875 1614.898438 C 2261.050781 1654.421875 2216.628906 1685.25 2162.640625 1685.25 M 1789.839844 1456.710938 C 1789.839844 1456.589844 1789.839844 1456.46875 1789.839844 1456.351562 C 1789.839844 1446.890625 1792.238281 1437.859375 1796.589844 1429.578125 C 1797.109375 1429.558594 1797.621094 1429.550781 1798.140625 1429.550781 C 1801.921875 1429.550781 1805.558594 1430.171875 1808.960938 1431.300781 C 1797.589844 1436.488281 1789.949219 1445.921875 1789.839844 1456.710938 "/>
<path fill-rule="nonzero" fill="rgb(56.834412%, 70.896912%, 76.951599%)" fill-opacity="1" d="M 1821.46875 1510.089844 C 1815.789062 1506.21875 1810.71875 1501.839844 1806.390625 1497.050781 C 1811.941406 1495.679688 1816.941406 1492.949219 1821.050781 1489.25 C 1820.730469 1492.140625 1820.539062 1495.070312 1820.539062 1498.050781 C 1820.539062 1502.140625 1820.859375 1506.160156 1821.46875 1510.089844 "/>
<path fill-rule="nonzero" fill="rgb(77.734375%, 87.5%, 90.625%)" fill-opacity="1" d="M 1884.679688 1528.429688 C 1860.398438 1528.429688 1838.25 1521.488281 1821.46875 1510.089844 C 1820.859375 1506.160156 1820.539062 1502.140625 1820.539062 1498.050781 C 1820.539062 1495.070312 1820.730469 1492.140625 1821.050781 1489.25 C 1816.941406 1492.949219 1811.941406 1495.679688 1806.390625 1497.050781 C 1796.339844 1485.898438 1790.300781 1472.5 1789.859375 1458.050781 C 1790.621094 1474.050781 1807.941406 1486.851562 1829.179688 1486.851562 C 1835.089844 1486.851562 1840.699219 1485.859375 1845.730469 1484.078125 C 1845.628906 1484.988281 1845.578125 1485.921875 1845.578125 1486.851562 C 1845.578125 1504.808594 1864.949219 1519.371094 1888.851562 1519.371094 C 1893.160156 1519.371094 1897.308594 1518.898438 1901.238281 1518.019531 C 1901.210938 1518.46875 1901.199219 1518.921875 1901.199219 1519.371094 C 1901.199219 1522.058594 1901.628906 1524.671875 1902.449219 1527.160156 C 1896.691406 1527.988281 1890.761719 1528.429688 1884.679688 1528.429688 "/>
<path fill-rule="nonzero" fill="rgb(77.734375%, 87.5%, 90.625%)" fill-opacity="1" d="M 1928.011719 1549.460938 C 1915.378906 1545.558594 1905.761719 1537.289062 1902.449219 1527.160156 C 1910.199219 1526.039062 1917.628906 1524.210938 1924.589844 1521.75 C 1924.339844 1523.949219 1924.210938 1526.179688 1924.210938 1528.429688 C 1924.210938 1535.710938 1925.53125 1542.769531 1928.011719 1549.460938 M 1789.859375 1458.050781 C 1789.851562 1457.679688 1789.839844 1457.320312 1789.839844 1456.949219 C 1789.839844 1456.871094 1789.839844 1456.789062 1789.839844 1456.710938 C 1789.839844 1457.160156 1789.851562 1457.601562 1789.859375 1458.050781 "/>
<path fill-rule="nonzero" fill="rgb(71.679688%, 80.46875%, 83.984375%)" fill-opacity="1" d="M 1810.421875 1431.828125 C 1809.941406 1431.640625 1809.449219 1431.46875 1808.960938 1431.300781 C 1809.449219 1431.078125 1809.949219 1430.859375 1810.449219 1430.648438 C 1810.441406 1431.039062 1810.429688 1431.441406 1810.421875 1431.828125 "/>
<path fill-rule="nonzero" fill="rgb(84.375%, 90.234375%, 92.1875%)" fill-opacity="1" d="M 1944.46875 1551.898438 C 1938.640625 1551.898438 1933.078125 1551.03125 1928.011719 1549.460938 C 1925.53125 1542.769531 1924.210938 1535.710938 1924.210938 1528.429688 C 1924.210938 1526.179688 1924.339844 1523.949219 1924.589844 1521.75 C 1917.628906 1524.210938 1910.199219 1526.039062 1902.449219 1527.160156 C 1901.628906 1524.671875 1901.199219 1522.058594 1901.199219 1519.371094 C 1901.199219 1518.921875 1901.210938 1518.46875 1901.238281 1518.019531 C 1897.308594 1518.898438 1893.160156 1519.371094 1888.851562 1519.371094 C 1864.949219 1519.371094 1845.578125 1504.808594 1845.578125 1486.851562 C 1845.578125 1485.921875 1845.628906 1484.988281 1845.730469 1484.078125 C 1840.699219 1485.859375 1835.089844 1486.851562 1829.179688 1486.851562 C 1807.941406 1486.851562 1790.621094 1474.050781 1789.859375 1458.050781 C 1789.851562 1457.601562 1789.839844 1457.160156 1789.839844 1456.710938 C 1789.949219 1445.921875 1797.589844 1436.488281 1808.960938 1431.300781 C 1809.449219 1431.46875 1809.941406 1431.640625 1810.421875 1431.828125 C 1810.429688 1431.441406 1810.441406 1431.039062 1810.449219 1430.648438 C 1816.019531 1428.359375 1822.398438 1427.058594 1829.179688 1427.058594 C 1833.191406 1427.058594 1837.050781 1427.511719 1840.691406 1428.359375 C 1844.980469 1413.78125 1862.261719 1402.878906 1882.949219 1402.878906 C 1893.648438 1402.878906 1903.441406 1405.800781 1910.988281 1410.628906 C 1918.929688 1403.359375 1930.980469 1398.71875 1944.46875 1398.71875 C 1954.941406 1398.71875 1964.53125 1401.511719 1972.011719 1406.148438 C 1979.488281 1401.511719 1989.089844 1398.71875 1999.550781 1398.71875 C 2023.449219 1398.71875 2042.828125 1413.28125 2042.828125 1431.238281 C 2042.828125 1433.039062 2042.628906 1434.800781 2042.261719 1436.511719 C 2060.710938 1440.230469 2074.300781 1452.878906 2074.300781 1467.929688 C 2074.300781 1476.570312 2069.820312 1484.421875 2062.5 1490.25 C 2065.839844 1494.859375 2067.738281 1500.148438 2067.738281 1505.78125 C 2067.738281 1523.738281 2048.371094 1538.300781 2024.46875 1538.300781 C 2008.828125 1538.300781 1995.128906 1532.058594 1987.519531 1522.71875 C 1985.300781 1539.109375 1966.871094 1551.898438 1944.46875 1551.898438 "/>
<path fill-rule="nonzero" fill="rgb(77.734375%, 87.5%, 90.625%)" fill-opacity="1" d="M 2750.070312 1450.800781 C 2749.050781 1450.800781 2748.441406 1450.609375 2748.441406 1450.609375 C 2748.441406 1450.609375 2814.828125 1334.03125 2656.761719 1275.050781 C 2656.761719 1275.050781 2668.191406 1272.621094 2683.910156 1272.621094 C 2717.789062 1272.621094 2771.578125 1283.910156 2773.730469 1355.171875 C 2776.441406 1444.308594 2756.058594 1450.800781 2750.070312 1450.800781 "/>
<path fill-rule="nonzero" fill="rgb(77.734375%, 87.5%, 90.625%)" fill-opacity="1" d="M 2715.371094 1781.980469 C 2715.371094 1781.980469 2821.648438 1745.789062 2773.980469 1604.230469 C 2773.980469 1604.230469 2884.628906 1750.359375 2715.371094 1781.980469 "/>
<path fill-rule="nonzero" fill="rgb(75.78125%, 15.281677%, 17.651367%)" fill-opacity="1" d="M 1205.609375 1440.53125 L 1214.53125 1441.519531 L 1214.53125 1489.539062 L 1205.609375 1490.578125 L 1205.609375 1440.53125 "/>
<path fill-rule="nonzero" fill="rgb(16.088867%, 66.992188%, 88.671875%)" fill-opacity="1" d="M 1051.691406 1590.28125 C 1054.21875 1596.199219 1056.21875 1602.101562 1058.078125 1608.128906 C 1059.929688 1614.140625 1061.511719 1620.21875 1062.890625 1626.339844 C 1065.648438 1638.578125 1067.441406 1651.019531 1068.351562 1663.511719 C 1068.769531 1669.761719 1068.941406 1676.011719 1068.910156 1682.269531 C 1068.78125 1688.519531 1068.511719 1694.769531 1067.878906 1700.988281 C 1066.691406 1713.429688 1064.300781 1725.738281 1060.878906 1737.71875 C 1063.929688 1725.628906 1065.929688 1713.300781 1066.730469 1700.898438 C 1067.171875 1694.699219 1067.238281 1688.480469 1067.179688 1682.28125 C 1067.019531 1676.070312 1066.660156 1669.878906 1066.050781 1663.699219 C 1064.769531 1651.371094 1062.621094 1639.128906 1059.519531 1627.140625 C 1057.980469 1621.148438 1056.238281 1615.210938 1054.238281 1609.371094 C 1052.25 1603.539062 1050.050781 1597.691406 1047.511719 1592.230469 L 1047.480469 1592.160156 C 1046.941406 1591 1047.441406 1589.628906 1048.601562 1589.089844 C 1049.75 1588.558594 1051.121094 1589.058594 1051.660156 1590.210938 L 1051.691406 1590.28125 "/>
<path fill-rule="nonzero" fill="rgb(70.117188%, 70.117188%, 70.117188%)" fill-opacity="1" d="M 1083.308594 892.671875 C 1083.308594 903.769531 1074.308594 912.769531 1063.210938 912.769531 C 1052.109375 912.769531 1043.121094 903.769531 1043.121094 892.671875 C 1043.121094 881.570312 1052.109375 872.578125 1063.210938 872.578125 C 1074.308594 872.578125 1083.308594 881.570312 1083.308594 892.671875 "/>
<path fill-rule="nonzero" fill="rgb(59.959412%, 59.959412%, 59.959412%)" fill-opacity="1" d="M 1081.53125 892.671875 C 1081.53125 902.789062 1073.328125 910.988281 1063.210938 910.988281 C 1053.101562 910.988281 1044.898438 902.789062 1044.898438 892.671875 C 1044.898438 882.558594 1053.101562 874.359375 1063.210938 874.359375 C 1073.328125 874.359375 1081.53125 882.558594 1081.53125 892.671875 "/>
<path fill-rule="nonzero" fill="rgb(30.200195%, 30.200195%, 30.200195%)" fill-opacity="1" d="M 1079.160156 892.671875 C 1079.160156 901.480469 1072.019531 908.621094 1063.210938 908.621094 C 1054.410156 908.621094 1047.269531 901.480469 1047.269531 892.671875 C 1047.269531 883.871094 1054.410156 876.730469 1063.210938 876.730469 C 1072.019531 876.730469 1079.160156 883.871094 1079.160156 892.671875 "/>
<path fill-rule="nonzero" fill="rgb(94.921875%, 94.921875%, 94.921875%)" fill-opacity="1" d="M 1119.371094 820.921875 C 1119.371094 820.921875 1070.71875 836.679688 1070.71875 839.308594 C 1070.71875 841.949219 1119.371094 833.519531 1119.371094 833.519531 C 1119.371094 833.519531 1124.28125 823.078125 1119.371094 820.921875 "/>
<path fill-rule="nonzero" fill="rgb(30.200195%, 30.200195%, 30.200195%)" fill-opacity="1" d="M 811.132812 1469.269531 L 805.527344 1469.269531 C 804.542969 1469.269531 803.746094 1468.46875 803.746094 1467.488281 L 803.746094 1457.199219 C 803.746094 1456.21875 804.542969 1455.421875 805.527344 1455.421875 L 811.132812 1455.421875 L 811.132812 1469.269531 "/>
</svg>
